<?xml version="1.0" standalone="no"?>
<!DOCTYPE svg PUBLIC "-//W3C//DTD SVG 20010904//EN"
 "http://www.w3.org/TR/2001/REC-SVG-20010904/DTD/svg10.dtd">
<svg version="1.0" xmlns="http://www.w3.org/2000/svg"
 width="736.000000pt" height="973.000000pt" viewBox="0 0 736.000000 973.000000"
 preserveAspectRatio="xMidYMid meet">
<metadata>
Created by potrace 1.16, written by Peter Selinger 2001-2019
</metadata>
<g transform="translate(0.000000,973.000000) scale(0.100000,-0.100000)"
fill="#000000" stroke="none">
<path d="M6906 9413 c-3 -3 -6 -25 -6 -47 0 -26 3 -36 9 -28 6 10 10 8 14 -10
4 -12 7 -32 7 -42 0 -18 -1 -18 -18 -3 -21 19 -39 22 -44 7 -2 -6 -13 -5 -28
3 -14 8 -45 12 -67 10 -23 -1 -45 2 -48 7 -8 13 -65 13 -65 0 0 -5 -11 -10
-25 -10 -19 0 -25 5 -25 23 0 13 5 28 11 34 6 6 8 16 5 22 -9 13 -43 15 -50 2
-4 -6 -20 -5 -42 1 -20 5 -41 7 -48 5 -16 -6 -20 -69 -4 -78 8 -5 3 -10 -15
-14 -15 -4 -27 -13 -27 -21 0 -8 -4 -14 -10 -14 -5 0 -10 -16 -10 -35 0 -32
-2 -35 -30 -35 -36 0 -40 -20 -8 -50 18 -17 19 -20 5 -20 -10 0 -17 -8 -17
-20 0 -14 -7 -20 -21 -20 -11 0 -36 -12 -55 -26 -19 -15 -34 -23 -34 -19 0 4
-7 2 -15 -5 -8 -7 -33 -12 -55 -12 -30 1 -44 -5 -55 -20 -14 -21 -15 -21 -34
-4 -21 19 -41 14 -41 -10 0 -8 -6 -14 -14 -14 -44 0 -16 -46 42 -70 29 -12 28
-23 -3 -40 -22 -12 -27 -11 -44 5 -19 16 -21 16 -36 1 -22 -22 -24 -20 -22 12
2 21 -2 26 -15 24 -20 -3 -23 9 -8 24 8 8 5 18 -9 35 -11 13 -20 18 -21 11 0
-8 -8 -10 -24 -6 -13 3 -27 1 -31 -5 -4 -7 -20 -9 -41 -5 -30 5 -34 4 -34 -15
0 -11 -4 -21 -10 -21 -18 0 -51 40 -57 71 -7 39 -14 42 -108 56 -75 10 -83 10
-122 -10 -24 -12 -43 -25 -43 -29 0 -12 57 -38 65 -30 5 4 5 -2 1 -13 -9 -24
-9 -20 -7 -73 1 -26 5 -41 11 -37 6 3 10 -1 10 -9 0 -11 -10 -16 -34 -16 -19
0 -41 -7 -50 -15 -8 -8 -19 -15 -24 -15 -5 0 -13 -12 -16 -26 -4 -14 -19 -36
-34 -49 -23 -20 -28 -21 -38 -7 -6 9 -18 13 -28 9 -9 -4 -16 -2 -16 4 0 15
-43 28 -57 17 -7 -6 -13 -4 -16 4 -3 10 -9 10 -23 2 -25 -14 -28 -29 -9 -47 8
-9 15 -25 15 -36 0 -16 -8 -20 -37 -23 -29 -2 -37 -7 -35 -20 1 -9 -2 -19 -8
-23 -5 -3 -8 -16 -4 -29 9 -37 -18 -51 -63 -34 -29 11 -45 12 -67 4 -25 -9
-31 -8 -48 13 -19 25 -62 51 -81 51 -6 0 -18 7 -28 16 -13 12 -26 14 -46 9
-15 -5 -39 -7 -52 -6 -32 4 -76 -46 -60 -66 9 -10 8 -13 -6 -13 -14 0 -16 9
-14 52 3 55 -9 70 -37 47 -21 -17 -41 -20 -69 -9 -17 7 -27 5 -37 -7 -23 -28
-74 -44 -103 -33 -44 17 -52 12 -59 -30 -6 -40 -14 -45 -51 -31 -28 11 -91
-55 -73 -76 6 -8 13 -22 14 -31 1 -10 5 -25 9 -34 4 -11 3 -18 -4 -18 -19 0
-78 -140 -66 -159 3 -5 0 -22 -7 -38 -6 -15 -11 -31 -10 -35 1 -4 -12 -18 -28
-32 -24 -20 -30 -34 -33 -72 -2 -29 -8 -49 -17 -52 -8 -3 -11 1 -7 10 6 17
-29 52 -43 43 -5 -3 -12 0 -16 6 -5 8 -3 9 7 4 12 -8 12 -6 0 9 -17 20 -41 5
-24 -16 5 -7 10 -30 10 -50 1 -35 -1 -38 -28 -38 -27 0 -29 -3 -29 -37 l0 -38
-74 -2 c-61 -2 -78 1 -99 17 -14 11 -30 20 -35 20 -6 0 -31 20 -55 45 -48 47
-99 61 -111 30 -3 -8 -12 -12 -21 -9 -22 9 -19 19 11 33 24 10 25 15 19 49 -3
20 -10 40 -13 44 -4 4 -38 12 -76 17 -46 7 -75 16 -89 31 -68 66 -111 100
-127 100 -10 0 -25 3 -34 6 -10 4 -16 1 -16 -9 0 -9 -7 -23 -16 -31 -8 -9 -12
-20 -9 -26 13 -21 -7 -8 -35 23 -53 58 -70 80 -70 89 0 13 -32 9 -64 -7 -15
-8 -47 -15 -71 -15 -26 0 -47 -6 -55 -15 -7 -8 -18 -15 -26 -15 -19 0 -27 -19
-15 -33 12 -16 4 -55 -17 -79 -8 -10 -12 -27 -9 -38 4 -14 0 -23 -11 -27 -22
-9 -33 -26 -21 -34 14 -8 -1 -41 -16 -35 -17 6 -35 -13 -28 -30 6 -17 -9 -18
-25 -2 -10 10 -14 8 -18 -10 -7 -25 -44 -31 -44 -7 0 25 -25 28 -86 10 l-56
-16 5 -35 c3 -19 3 -34 -1 -34 -14 0 -33 -108 -26 -149 5 -31 11 -41 25 -41
25 0 24 -12 -1 -28 -24 -15 -26 -28 -4 -36 10 -4 25 1 35 10 22 20 22 19 8
-83 -9 -73 -23 -105 -65 -153 -66 -75 -95 -94 -124 -85 -33 10 -60 -27 -56
-80 1 -25 8 -51 15 -58 8 -8 55 -12 149 -13 192 -2 281 -29 282 -85 0 -9 9
-24 19 -33 19 -17 19 -18 -1 -51 -10 -19 -27 -37 -37 -40 -22 -7 -76 -88 -98
-149 -11 -28 -22 -45 -30 -42 -6 3 -27 0 -45 -6 -18 -6 -76 -11 -128 -12 -52
-1 -96 -5 -97 -9 -2 -4 -9 -23 -17 -42 -8 -19 -11 -37 -7 -40 5 -2 14 15 20
39 11 43 12 44 40 36 16 -4 32 -6 35 -3 3 3 31 7 63 8 32 1 82 6 111 10 l52 8
0 -41 c0 -22 3 -47 6 -56 4 -11 0 -16 -13 -16 -14 0 -21 -12 -31 -52 -13 -55
-4 -81 21 -60 10 8 21 6 45 -8 18 -11 32 -23 32 -27 0 -5 -9 -33 -21 -63 -23
-60 -32 -164 -17 -193 7 -13 13 -15 26 -7 94 58 94 58 61 -10 -14 -28 -19 -53
-15 -72 4 -18 0 -38 -10 -54 -9 -13 -14 -33 -11 -43 3 -12 -3 -27 -15 -38 -25
-22 -58 -96 -58 -129 0 -15 18 -42 53 -76 29 -29 74 -85 99 -124 40 -61 52
-73 85 -81 49 -11 70 -49 54 -95 -10 -27 -8 -35 8 -52 14 -15 19 -35 19 -72 0
-64 15 -94 47 -94 34 0 23 -22 -24 -48 -40 -23 -65 -21 -75 4 -3 8 -12 14 -21
14 -8 0 -15 7 -15 15 0 16 -6 18 -61 15 -22 -1 -44 6 -60 18 -16 14 -29 17
-40 11 -12 -6 -22 -3 -34 11 -10 11 -27 20 -37 20 -11 0 -31 9 -45 20 -28 21
-59 25 -83 10 -9 -5 -19 -5 -27 2 -9 7 -17 7 -25 0 -7 -5 -32 -13 -55 -17 -40
-6 -43 -5 -53 21 -6 15 -20 35 -30 44 -30 26 -24 40 15 40 28 0 35 4 35 20 0
11 -4 20 -9 20 -5 0 -15 16 -22 35 -7 19 -21 37 -31 41 -10 3 -18 15 -18 27 1
12 -2 36 -6 54 -5 29 -11 33 -50 39 -23 3 -58 17 -76 31 -32 24 -33 24 -36 4
-2 -14 -11 -21 -26 -21 -32 0 -35 -7 -23 -41 9 -24 8 -32 -5 -45 -18 -18 -42
-10 -34 11 2 7 -4 15 -15 18 -17 5 -25 31 -20 61 1 5 -1 16 -4 25 -5 13 -9 12
-24 -7 -14 -20 -21 -22 -44 -13 -15 6 -27 17 -27 25 0 23 -13 26 -56 11 -27
-9 -38 -19 -36 -30 3 -13 -3 -12 -28 7 -18 13 -34 35 -37 51 -3 16 -12 31 -19
34 -8 3 -14 14 -14 24 0 23 -17 24 -42 2 -17 -15 -19 -15 -31 0 -11 15 -15 15
-44 0 -18 -8 -33 -22 -33 -29 0 -17 -8 -17 -43 -1 -16 7 -25 18 -22 25 3 8 5
25 5 38 0 19 5 24 25 24 34 0 41 22 18 56 -20 31 -19 63 3 79 21 15 6 52 -27
65 -16 7 -29 16 -29 20 0 14 -35 22 -113 25 -43 2 -81 6 -84 8 -2 3 1 14 8 25
10 16 9 24 -10 50 l-22 31 30 59 c17 33 37 62 45 65 8 3 17 21 21 39 14 69 14
69 56 66 22 -1 43 -6 45 -10 10 -15 24 -8 36 17 10 22 17 26 47 23 31 -3 36
-7 39 -30 3 -27 4 -27 28 -11 25 16 25 16 20 -8 -7 -30 28 -74 67 -83 25 -6
28 -4 27 16 -5 51 -2 54 69 71 38 10 83 17 99 17 17 0 37 6 44 14 10 10 19 11
32 4 9 -5 23 -7 30 -5 8 3 26 -8 42 -24 31 -32 68 -38 82 -13 12 21 48 13 79
-16 25 -23 33 -25 33 -9 0 6 8 23 18 37 21 31 48 110 40 118 -3 3 -2 21 2 40
4 19 4 34 -1 34 -5 0 -10 -15 -10 -32 -3 -57 -4 -62 -22 -115 -10 -29 -23 -56
-29 -59 -5 -3 -28 2 -49 12 -39 17 -41 17 -71 0 l-30 -18 -33 32 c-18 18 -38
29 -43 26 -6 -3 -23 -1 -37 6 -23 10 -28 10 -36 -5 -6 -11 -22 -17 -42 -17
-18 0 -64 -8 -104 -17 -60 -15 -73 -22 -78 -41 -3 -13 -3 -27 0 -32 4 -6 -3
-10 -14 -10 -24 0 -67 55 -51 65 15 9 -9 38 -25 31 -7 -2 -19 4 -28 15 -11 13
-30 19 -56 19 -34 0 -40 -4 -45 -26 -5 -20 -10 -24 -19 -15 -15 15 -92 14
-104 -1 -6 -7 -13 -29 -17 -49 -3 -20 -16 -45 -27 -55 -22 -20 -69 -105 -69
-125 0 -6 9 -24 20 -39 21 -29 11 -52 -13 -32 -20 17 -101 24 -268 26 -176 1
-174 0 -185 68 -4 21 -18 48 -35 64 -27 26 -29 26 -62 11 -18 -9 -41 -25 -51
-36 -13 -14 -26 -19 -42 -15 -27 7 -29 2 -14 -27 6 -10 7 -20 3 -20 -4 -1 -24
-3 -43 -5 -19 -2 -37 -9 -39 -16 -10 -29 -51 -58 -74 -53 -15 4 -28 1 -37 -10
-12 -14 -15 -14 -37 7 l-24 23 -37 -22 c-38 -22 -38 -22 -28 -98 2 -16 4 -49
5 -72 l1 -41 30 11 c25 10 33 9 40 -2 9 -16 28 -22 80 -25 19 -1 51 -11 71
-24 20 -12 39 -19 42 -15 4 3 7 -1 7 -9 0 -21 61 -66 115 -85 25 -8 45 -21 45
-29 0 -8 10 -14 24 -14 27 0 39 -20 25 -41 -5 -8 -9 -22 -9 -31 0 -28 -36 -63
-89 -88 -42 -19 -50 -27 -55 -59 -8 -49 14 -73 40 -42 20 23 58 28 70 10 5 -8
29 -10 76 -5 41 4 77 2 88 -4 15 -8 31 -5 70 15 27 14 50 30 50 35 0 15 21 12
41 -6 21 -19 15 -40 -19 -69 -33 -29 -22 -61 28 -83 34 -14 38 -20 33 -40 -3
-15 0 -28 8 -34 11 -7 11 -11 2 -15 -21 -8 -15 -39 9 -56 22 -14 21 -15 -22
-10 -36 4 -49 1 -67 -17 -13 -11 -23 -28 -23 -38 0 -9 -9 -28 -20 -42 -11 -14
-20 -32 -20 -40 0 -9 -5 -21 -11 -27 -7 -7 -2 -17 19 -32 17 -11 35 -21 42
-21 6 0 25 -8 43 -17 18 -9 44 -18 59 -19 64 -4 157 -67 145 -99 -7 -17 46
-50 63 -40 6 3 14 -5 20 -19 9 -25 -12 -107 -36 -138 -21 -26 -23 -49 -7 -74
21 -32 10 -42 -52 -46 -47 -3 -50 -5 -47 -28 1 -14 9 -30 17 -36 20 -15 19
-93 0 -207 -9 -48 -12 -93 -8 -100 4 -6 8 -20 8 -30 1 -10 8 -23 15 -27 11 -7
10 -18 -4 -64 -17 -53 -17 -56 2 -76 12 -13 25 -18 35 -14 10 3 17 2 17 -3 0
-5 17 -28 38 -51 28 -30 46 -41 64 -40 13 1 39 -4 56 -11 29 -12 36 -11 70 10
20 14 46 29 57 35 11 6 20 17 20 25 0 18 34 46 82 65 21 9 56 28 78 43 32 22
49 26 83 23 42 -4 43 -5 37 -33 -5 -21 0 -38 19 -66 15 -21 26 -52 26 -70 0
-29 3 -33 25 -33 27 0 31 -10 14 -42 -7 -12 -14 -44 -18 -72 -6 -48 -8 -51
-33 -48 -14 2 -29 -2 -33 -7 -3 -6 -15 -11 -26 -11 -19 0 -23 -10 -19 -40 1
-8 19 -33 41 -56 31 -32 41 -50 44 -84 3 -24 9 -48 15 -54 16 -16 12 -26 -13
-35 -46 -18 -96 -161 -57 -161 5 0 5 -13 0 -30 -7 -25 -5 -32 11 -40 24 -13
25 -30 1 -37 -15 -3 -19 -14 -19 -50 0 -32 -5 -48 -16 -55 -10 -5 -17 -21 -17
-37 0 -16 -8 -39 -19 -52 -23 -31 -44 -95 -36 -110 4 -6 19 -9 33 -6 19 4 32
-1 44 -16 10 -11 35 -27 56 -34 33 -11 40 -11 64 7 28 21 64 27 53 11 -9 -16
30 -32 44 -18 10 9 11 8 6 -4 -8 -23 26 -81 57 -96 25 -13 25 -13 10 -58 -11
-34 -19 -45 -30 -40 -32 12 -63 -39 -68 -112 -4 -54 -19 -83 -44 -83 -15 0
-20 -7 -20 -25 0 -14 -6 -28 -14 -31 -9 -3 -16 -31 -21 -80 -5 -58 -12 -80
-28 -96 -15 -14 -18 -22 -9 -25 28 -11 12 -55 -38 -102 -29 -28 -50 -56 -50
-69 0 -23 -25 -52 -45 -52 -14 0 -45 -42 -45 -60 0 -7 16 -31 35 -54 19 -24
35 -52 35 -64 0 -37 11 -54 26 -41 11 9 14 8 14 -5 0 -9 13 -29 29 -45 36 -36
41 -68 16 -106 -11 -17 -25 -39 -31 -50 -6 -11 -20 -24 -32 -30 -12 -5 -22
-18 -22 -29 0 -13 -5 -17 -20 -13 -28 7 -26 -21 5 -63 14 -19 25 -45 25 -59 0
-14 14 -42 30 -61 16 -19 30 -40 30 -46 0 -6 6 -17 14 -23 8 -7 21 -27 30 -45
14 -30 14 -38 1 -69 -17 -41 -34 -50 -59 -32 -41 30 -60 -13 -31 -69 19 -35
19 -36 -3 -36 -10 0 -25 -16 -37 -42 -13 -28 -29 -44 -42 -46 -17 -2 -21 -10
-21 -37 0 -24 4 -32 13 -29 10 4 12 -1 8 -16 -3 -13 -11 -19 -19 -16 -19 7
-61 -13 -69 -33 -7 -17 1 -25 120 -121 37 -30 77 -64 89 -76 11 -11 43 -31 69
-43 29 -14 52 -33 57 -47 7 -19 17 -24 42 -24 18 0 67 -11 108 -24 41 -13 119
-32 173 -42 85 -16 100 -16 108 -3 5 7 7 23 4 35 -9 42 59 76 178 89 99 10
197 56 197 92 0 20 39 51 75 59 40 8 169 80 211 116 18 16 67 41 108 57 55 20
73 30 65 38 -18 18 6 72 59 133 38 44 47 61 48 95 1 22 7 60 13 84 9 33 9 47
0 57 -18 22 -5 131 20 165 12 16 21 33 21 38 0 25 33 42 70 36 45 -8 63 10 26
25 -16 6 -26 17 -26 30 0 24 -13 26 -30 5 -7 -8 -16 -12 -22 -9 -13 8 2 172
18 203 8 14 14 31 14 36 0 23 67 90 129 130 36 23 104 72 151 110 47 37 95 71
107 76 39 15 207 38 234 32 15 -3 37 2 50 10 13 8 43 18 66 22 39 6 41 8 30
26 -17 28 7 41 66 35 36 -4 47 -2 47 9 0 8 15 18 33 24 17 5 72 23 122 41 60
21 99 30 119 26 19 -4 38 0 55 11 29 19 99 22 204 9 53 -7 85 -5 152 10 78 17
110 33 68 35 -73 2 -153 13 -181 25 -82 34 -211 161 -255 251 -19 40 -20 44
-4 55 11 9 18 34 22 77 6 68 20 106 60 160 14 19 25 42 25 52 0 19 102 159
126 172 9 5 28 29 44 53 15 24 39 54 54 65 17 13 26 30 26 49 0 16 10 40 23
55 73 88 181 206 195 214 14 8 15 12 5 22 -7 7 -13 19 -13 26 0 7 -9 22 -19
32 -15 15 -18 28 -14 67 6 55 27 114 41 114 5 0 17 12 27 26 14 22 15 28 4 35
-11 6 -8 14 11 33 13 15 28 26 32 26 5 0 16 7 24 15 8 8 33 19 54 25 22 6 45
20 51 31 9 18 17 20 72 15 34 -4 85 -8 112 -11 28 -2 104 -14 170 -25 159 -28
275 -37 275 -21 0 7 5 9 10 6 6 -4 7 -11 4 -17 -4 -7 8 -8 37 -5 24 3 56 6 71
6 15 1 39 11 54 24 l27 23 -16 95 c-27 155 -39 502 -36 967 3 345 1 450 -10
497 -7 33 -13 89 -13 125 0 39 -5 71 -13 80 -7 8 -18 38 -23 66 -6 28 -27 83
-46 121 -48 95 -57 143 -45 228 11 82 47 241 94 410 18 66 38 142 44 170 17
70 74 181 163 316 43 64 91 143 109 175 40 75 61 106 119 174 74 88 120 162
120 195 0 16 34 131 76 254 61 182 75 233 70 263 -12 75 36 382 71 454 8 17
16 56 18 85 1 30 16 98 34 153 35 111 39 180 16 266 -8 30 -15 70 -15 88 0 18
-4 31 -8 28 -9 -5 -39 58 -61 126 -13 39 -24 52 -35 41z m-367 -44 c24 -9 35
-9 44 0 24 24 37 12 19 -18 -13 -23 -14 -32 -4 -44 18 -22 61 -27 71 -10 6 12
12 13 29 4 11 -6 43 -11 71 -11 27 0 62 -5 76 -12 21 -9 28 -9 35 2 10 17 38
-36 33 -65 -1 -11 0 -14 3 -7 8 17 33 15 41 -4 4 -12 7 -13 14 -3 11 19 16 10
24 -41 4 -25 11 -48 16 -51 24 -14 22 -162 -1 -199 -8 -12 -12 -13 -19 -2 -6
10 -10 4 -15 -19 -4 -20 -2 -35 5 -40 8 -5 6 -23 -8 -65 l-20 -59 -52 3 c-47
3 -51 2 -51 -19 0 -17 -3 -20 -11 -12 -25 25 -57 -4 -64 -57 -15 -114 -17
-120 -41 -120 -14 0 -25 8 -29 20 -7 21 -35 28 -35 10 0 -7 -6 -8 -16 -2 -19
11 -64 4 -64 -10 0 -5 -5 -6 -10 -3 -6 4 -17 1 -25 -5 -8 -7 -15 -9 -15 -5 0
4 -6 2 -14 -4 -11 -9 -15 -7 -19 9 -3 12 -13 20 -25 20 -11 0 -27 7 -36 15 -8
8 -19 15 -24 15 -5 0 -15 -7 -22 -15 -14 -17 -70 -21 -70 -5 0 15 -38 12 -43
-2 -8 -26 5 -46 34 -52 16 -3 29 -10 29 -17 0 -7 -11 -8 -29 -4 -33 7 -53 -12
-27 -27 15 -8 15 -11 -1 -33 -10 -14 -26 -25 -35 -25 -31 0 -88 33 -88 51 0
30 -22 68 -42 75 -14 4 -18 12 -15 25 6 23 -29 47 -45 31 -16 -16 -39 -2 -33
19 4 11 -1 25 -13 36 -18 18 -18 19 1 45 13 18 18 35 13 52 -5 22 -12 26 -42
26 -31 0 -35 3 -29 20 5 16 2 20 -19 20 -16 0 -26 6 -26 14 0 8 -6 16 -14 19
-14 5 -56 -62 -56 -89 0 -9 -11 -14 -31 -14 -24 0 -30 -4 -25 -15 8 -22 -24
-33 -35 -12 -5 9 -22 16 -37 16 -15 0 -34 1 -42 2 -43 6 -69 -2 -76 -23 -3
-12 -13 -29 -21 -37 -13 -12 -16 -12 -24 0 -5 8 -4 15 1 17 15 6 12 22 -5 22
-8 0 -19 9 -25 21 -14 25 -20 20 -36 -27 -10 -29 -10 -36 2 -41 21 -8 17 -23
-7 -23 -12 0 -36 -7 -55 -16 -33 -16 -37 -16 -70 2 -20 11 -43 32 -51 48 -13
25 -13 30 1 44 14 14 16 14 22 -1 8 -21 21 -22 41 -2 8 9 23 13 32 11 9 -3 23
-1 31 4 13 9 12 12 -4 22 -16 9 -17 13 -5 22 8 6 19 20 25 31 8 14 24 21 53
23 35 3 41 6 41 27 0 12 7 25 15 29 8 3 15 12 15 21 0 19 -16 20 -24 0 -3 -8
-10 -15 -17 -15 -10 0 -9 51 2 89 3 10 -6 17 -25 20 -78 15 -1 61 79 48 28 -5
64 -10 80 -12 17 -1 33 -3 38 -4 4 -1 7 -12 7 -25 0 -14 12 -38 26 -55 28 -33
64 -42 64 -15 0 13 7 15 30 10 21 -4 32 -1 36 7 2 7 20 13 40 13 l35 0 -7 -39
c-6 -36 -4 -38 14 -33 16 6 19 3 14 -19 -5 -28 7 -32 38 -13 16 11 22 9 33 -6
14 -19 15 -19 51 3 20 13 36 27 36 32 0 5 -17 17 -38 28 -48 25 -73 51 -47 51
9 0 19 9 22 20 5 18 6 18 30 3 24 -16 26 -16 42 6 13 17 24 22 39 17 27 -9 86
10 130 42 18 13 39 21 46 19 18 -7 36 12 29 29 -3 8 1 14 11 14 23 0 20 22 -6
45 l-23 20 33 3 c29 3 32 6 32 35 0 32 17 54 59 77 24 13 28 30 6 30 -17 0
-18 4 -9 38 7 25 10 26 53 11z m-626 -568 c3 -14 11 -18 24 -15 16 4 20 1 19
-18 -1 -20 3 -23 31 -20 36 4 46 -7 37 -43 -4 -15 -15 -27 -30 -31 -32 -8 -31
-34 1 -34 18 0 25 -5 25 -20 0 -11 -4 -20 -10 -20 -5 0 -10 -6 -10 -14 0 -17
49 -27 71 -15 9 4 19 5 23 2 10 -10 7 -53 -4 -53 -5 0 -24 -12 -42 -28 -18
-15 -51 -36 -72 -47 -71 -36 -76 -40 -76 -55 -1 -16 -57 -46 -108 -56 -37 -8
-69 -48 -52 -68 8 -11 1 -13 -35 -12 -25 1 -51 8 -57 14 -18 18 -48 15 -55 -5
-4 -10 -11 -21 -17 -25 -7 -4 -7 -27 1 -70 8 -50 8 -69 -3 -90 -12 -23 -12
-28 1 -35 24 -14 -8 -99 -40 -107 -13 -3 -37 -18 -54 -32 -37 -31 -61 -26 -61
13 0 23 6 31 31 40 25 10 29 15 21 26 -6 7 -7 18 -2 26 9 16 2 41 -11 41 -6 0
-19 -9 -31 -20 -22 -20 -38 -18 -38 4 0 14 -33 33 -65 38 -14 2 -21 12 -23 32
-2 18 -11 30 -23 33 -11 3 -19 14 -19 27 0 36 -11 37 -40 6 -35 -37 -43 -37
-69 -2 -17 24 -18 34 -9 76 5 26 16 50 24 53 19 7 18 29 -1 37 -24 9 -17 29
19 54 29 20 38 22 56 12 27 -14 27 -14 34 35 7 52 15 85 29 113 9 18 7 29 -7
52 -16 29 -16 30 0 37 10 4 19 2 22 -5 2 -7 8 -12 14 -12 5 0 21 -9 35 -20 24
-18 27 -19 57 -3 17 9 44 19 61 23 33 6 49 40 19 40 -14 0 -15 3 -6 12 7 7 12
21 12 31 0 16 3 17 14 7 8 -6 13 -17 10 -24 -3 -7 4 -20 15 -31 18 -15 23 -16
37 -4 9 7 20 23 25 36 10 27 30 30 106 20 12 -2 29 -9 37 -16 19 -16 51 -10
51 9 0 9 12 17 30 20 17 3 30 11 31 20 1 23 25 80 34 80 4 0 10 -9 13 -19z
m-683 -68 c7 -12 13 -14 16 -7 3 7 13 10 23 7 25 -6 35 -73 14 -90 -13 -10
-12 -15 2 -43 13 -25 14 -38 7 -54 -14 -27 -27 -82 -30 -119 -2 -15 -8 -17
-30 -12 -27 6 -33 3 -90 -45 -14 -13 1 -50 20 -50 7 0 5 -6 -4 -12 -9 -7 -21
-35 -26 -61 -9 -43 -7 -53 15 -92 13 -25 23 -53 21 -62 -5 -24 -39 -23 -60 2
-13 15 -17 16 -18 5 0 -12 -11 -14 -52 -12 -64 4 -105 -10 -118 -40 -16 -39
-46 -72 -54 -59 -14 21 -56 13 -66 -14 -10 -26 -24 -32 -36 -14 -3 6 -17 8
-29 5 -13 -3 -35 -2 -49 4 -23 8 -27 5 -49 -33 -14 -25 -29 -40 -38 -38 -8 2
-30 3 -50 2 -38 -2 -89 34 -89 64 0 20 26 19 34 -1 6 -15 9 -15 29 5 13 11 29
21 35 21 7 0 12 13 12 28 0 15 4 32 9 38 5 5 11 18 13 29 2 16 13 21 52 25 27
3 51 11 54 18 2 6 -3 12 -11 12 -19 0 -27 22 -20 51 4 15 0 27 -13 37 -18 13
-18 14 4 7 18 -5 22 -2 23 17 1 13 1 27 0 32 -1 4 5 19 14 32 8 13 15 26 15
29 0 14 -40 2 -70 -20 -19 -14 -39 -25 -46 -25 -6 0 -22 -8 -35 -18 -13 -10
-40 -25 -59 -32 -19 -8 -42 -23 -51 -34 -21 -25 -45 -16 -52 21 -5 27 -7 28
-78 30 -40 1 -82 -3 -92 -9 -29 -15 -30 -5 -5 56 16 38 29 56 41 56 9 0 17 2
17 5 0 5 -18 50 -32 81 -8 17 -5 26 14 47 21 22 30 25 61 20 36 -5 36 -5 43
37 6 37 9 41 28 34 38 -13 88 -6 110 15 19 18 30 20 69 15 38 -5 48 -4 53 10
13 33 24 14 24 -39 l0 -55 46 0 c40 0 45 2 34 15 -7 8 -19 15 -26 15 -19 0
-18 7 5 31 14 15 26 19 41 14 13 -4 33 -1 47 6 22 12 27 11 38 -4 7 -9 17 -17
22 -17 20 0 73 -32 83 -50 8 -16 21 -19 63 -18 28 0 64 -3 80 -7 36 -10 57 8
57 49 0 40 9 51 42 60 40 9 52 38 29 67 -18 23 -18 49 -1 49 5 0 14 -8 20 -17z
m1660 -22 c0 -6 16 -7 35 -4 l36 6 -5 -37 c-3 -21 -9 -43 -15 -49 -5 -7 -13
-26 -16 -42 -6 -30 -42 -242 -51 -301 -6 -41 -42 -53 -65 -22 -15 19 -17 19
-25 5 -6 -11 -17 -14 -32 -10 -22 5 -31 33 -11 33 7 0 8 7 4 18 -4 9 -8 32 -9
50 -1 25 3 32 16 32 11 0 18 7 18 19 0 13 -10 21 -34 25 -39 8 -51 20 -60 61
-8 38 11 72 20 37 5 -19 12 -23 38 -20 32 3 34 7 50 118 8 52 17 61 47 55 25
-6 29 -3 29 14 0 12 6 21 15 21 8 0 15 -4 15 -9z m-570 -160 c0 -11 111 -20
125 -10 15 10 55 -8 55 -26 0 -19 20 -19 48 1 12 8 23 12 24 7 0 -4 2 -12 3
-18 1 -5 5 -18 10 -28 7 -18 -18 -57 -37 -57 -17 0 -7 21 15 30 22 10 22 10
-3 7 -19 -1 -26 -8 -28 -29 -4 -31 12 -37 37 -14 13 12 18 12 28 1 9 -10 6
-23 -18 -58 -17 -25 -30 -56 -31 -69 0 -49 -9 -67 -44 -88 -28 -18 -44 -21
-80 -16 -43 6 -44 5 -38 -19 7 -29 -12 -34 -47 -12 -17 10 -22 9 -33 -5 -7
-10 -21 -18 -30 -18 -33 0 -17 -36 25 -56 41 -19 97 -88 68 -84 -46 7 -49 2
-43 -52 6 -53 6 -53 -22 -54 -16 -1 -47 -5 -69 -9 -22 -3 -53 -6 -68 -6 -27 0
-28 -2 -22 -32 4 -18 9 -39 11 -48 3 -12 -5 -19 -33 -25 -21 -4 -45 -7 -54 -6
-9 1 -19 -8 -22 -19 -5 -17 -9 -19 -25 -10 -20 11 -37 51 -21 51 5 0 9 6 9 14
0 17 -32 29 -79 30 -27 1 -38 7 -51 31 -24 43 -9 75 36 75 41 0 124 35 124 52
0 7 -5 20 -10 28 -6 10 -4 20 7 32 14 16 13 19 -16 35 -17 10 -31 23 -31 28 0
6 -14 16 -32 23 -26 10 -35 9 -49 -4 -15 -13 -17 -13 -23 1 -3 9 -6 25 -6 36
0 14 -12 25 -37 35 -53 21 -85 39 -85 50 0 5 -4 14 -9 20 -11 13 16 54 36 54
30 0 125 45 125 60 0 16 58 60 78 60 6 0 26 13 44 29 74 64 111 61 123 -8 6
-34 12 -42 46 -55 54 -22 72 -20 99 9 18 20 21 28 12 37 -20 20 -13 28 18 22
40 -8 42 21 3 39 -31 13 -44 27 -37 39 7 11 24 10 24 -1z m332 -35 c-2 -9 2
-16 8 -16 5 0 10 -10 10 -22 1 -29 25 -62 39 -54 6 4 21 2 33 -5 22 -12 22
-12 3 -19 -14 -5 -20 -17 -21 -44 0 -20 3 -39 9 -43 5 -3 4 -9 -3 -13 -18 -11
-4 -64 15 -56 8 3 17 1 20 -4 10 -16 25 -11 25 7 0 15 1 15 14 -2 8 -11 19
-16 30 -12 17 7 20 -7 16 -68 -2 -26 0 -27 14 -16 26 22 21 -4 -40 -175 -30
-88 -59 -172 -64 -189 -5 -16 -13 -46 -19 -65 -6 -19 -11 -47 -11 -61 0 -28
-56 -121 -109 -181 -28 -32 -35 -36 -51 -26 -16 10 -24 7 -49 -20 -31 -32 -39
-52 -22 -52 6 0 13 5 16 10 3 6 13 10 21 10 35 0 -57 -120 -122 -161 -29 -17
-37 -19 -50 -8 -13 10 -21 9 -44 -5 -27 -15 -31 -16 -54 -1 -13 9 -37 35 -52
58 -65 97 -100 121 -145 96 -14 -7 -30 -7 -54 1 -28 9 -39 9 -57 -4 -31 -22
-45 -20 -65 11 -14 20 -15 27 -5 31 7 2 18 15 23 29 5 14 17 27 27 30 10 2 26
18 36 34 13 22 23 28 37 24 15 -5 19 -1 19 18 0 14 6 27 13 30 9 3 9 11 0 36
-10 27 -9 33 4 38 10 4 13 14 10 32 -3 15 -3 31 1 37 9 12 76 35 94 32 10 -2
12 9 10 45 -3 40 0 47 16 47 10 0 22 3 25 6 7 7 42 13 107 17 32 3 35 5 32 32
-2 17 -4 39 -5 50 -2 15 5 21 26 23 33 4 33 4 5 53 -14 26 -33 42 -55 50 -18
6 -33 13 -33 16 0 3 10 16 22 28 19 20 25 22 38 10 18 -16 60 -3 60 19 0 11
11 15 40 14 65 -1 152 74 121 105 -10 10 8 56 33 84 40 45 40 45 23 58 -16 12
-20 75 -4 75 4 0 7 8 7 18 0 10 3 22 7 26 12 11 28 0 25 -18z m-1976 -218 c-9
-20 -12 -38 -9 -42 4 -3 -3 -6 -15 -6 -29 0 -37 -17 -11 -25 18 -6 20 -12 14
-45 -5 -31 -3 -40 12 -49 15 -8 12 -10 -18 -9 -20 1 -41 -2 -48 -6 -14 -9 -41
-72 -41 -97 0 -11 -6 -19 -14 -19 -8 0 -16 -7 -20 -15 -7 -19 -26 -20 -26 -1
0 9 -8 12 -25 8 -33 -6 -32 -32 1 -71 22 -26 33 -31 70 -31 24 0 44 -3 44 -7
0 -30 -76 -195 -100 -218 -17 -16 -30 -37 -30 -46 0 -10 -5 -21 -11 -25 -6 -3
-8 -17 -5 -30 7 -26 -15 -78 -44 -103 -10 -9 -26 -40 -35 -68 -12 -38 -28 -63
-58 -88 -47 -41 -57 -43 -57 -13 0 20 -1 20 -18 5 -30 -27 -45 -21 -37 13 4
20 2 37 -6 46 -11 13 -10 18 4 25 24 14 21 36 -5 44 -13 4 -34 20 -48 36 -31
37 -127 66 -144 45 -14 -17 -50 -26 -66 -16 -9 6 -9 13 -1 28 18 34 13 64 -16
94 -24 25 -27 36 -29 110 -1 46 -5 98 -9 116 -8 35 -10 34 60 36 40 1 40 1 38
39 -2 27 1 37 10 34 19 -7 47 12 47 33 0 24 22 31 36 12 7 -9 18 -12 32 -8 21
7 29 38 22 85 -1 8 11 24 25 35 26 21 55 82 55 118 0 24 54 38 125 33 55 -3
60 -5 63 -29 2 -13 10 -30 18 -37 12 -10 20 -7 42 13 15 13 63 42 107 63 44
22 91 48 104 58 31 23 34 18 17 -25z m-1571 -30 c14 -34 12 -48 -7 -48 -6 0
-8 11 -6 25 6 31 -7 33 -15 3 -4 -13 -1 -26 6 -30 20 -13 42 -3 41 19 0 13 4
19 13 16 7 -3 13 -11 13 -19 0 -8 6 -14 14 -14 8 0 18 -9 21 -20 4 -12 15 -20
29 -20 19 0 24 6 24 26 0 27 16 44 42 44 15 0 84 -54 126 -98 17 -17 41 -26
91 -33 77 -11 83 -15 86 -55 1 -21 -4 -31 -20 -39 -45 -20 -36 -55 15 -55 13
0 22 6 22 15 0 27 45 17 76 -17 39 -42 130 -98 158 -98 19 0 24 -9 33 -57 6
-32 10 -80 9 -108 -2 -52 11 -92 38 -114 20 -17 20 -45 0 -76 -14 -22 -14 -24
5 -34 21 -11 81 -4 81 10 0 25 108 -6 134 -38 10 -14 30 -29 44 -34 l25 -10
-27 -28 c-27 -28 -26 -44 1 -34 13 5 14 -1 8 -36 -7 -41 -6 -43 16 -39 24 3
59 -18 59 -36 0 -5 8 -14 17 -21 14 -11 15 -15 4 -28 -7 -9 -18 -14 -25 -11
-7 3 -18 -7 -24 -21 -7 -14 -20 -25 -31 -25 -11 0 -26 -3 -35 -6 -10 -4 -16
-1 -16 9 0 21 -19 32 -33 18 -6 -6 -24 -11 -39 -11 -22 0 -31 -7 -42 -35 -8
-19 -17 -35 -20 -35 -18 0 -36 15 -36 30 0 27 -22 40 -89 52 -59 11 -60 12
-35 23 25 10 26 12 10 28 -10 9 -30 17 -45 17 -16 0 -34 7 -42 16 -21 26 -66
44 -108 44 -32 0 -41 4 -47 23 -3 12 -13 30 -21 39 -8 9 -12 25 -9 36 8 23
-17 47 -36 36 -18 -12 -51 -15 -63 -6 -31 23 -57 77 -57 118 1 37 -2 44 -18
44 -10 0 -22 5 -25 10 -3 6 -14 10 -24 10 -10 0 -32 7 -47 15 -16 8 -39 15
-51 15 -13 0 -31 13 -44 31 -18 26 -27 30 -50 25 -16 -3 -29 -1 -29 4 0 15
-38 22 -61 9 -22 -11 -22 -12 -3 -26 12 -9 19 -26 19 -46 0 -25 4 -31 17 -29
10 1 25 -9 34 -23 16 -25 16 -28 1 -55 -9 -15 -17 -39 -17 -52 0 -43 -12 -50
-74 -43 l-56 7 0 -45 c0 -56 -8 -77 -28 -77 -23 0 -72 -50 -72 -74 0 -17 -19
-82 -27 -95 -1 -2 -9 2 -17 8 -16 13 -56 6 -56 -10 0 -16 -25 -10 -36 9 -7 11
-36 22 -75 30 -35 7 -80 16 -99 20 -19 4 -73 4 -120 1 -108 -8 -125 -1 -125
54 0 55 9 67 51 67 19 0 34 5 34 10 0 6 8 10 18 10 10 0 24 10 32 22 8 12 32
41 53 65 40 44 55 83 63 168 2 28 7 56 9 63 8 21 -24 26 -45 7 -11 -10 -20
-13 -20 -8 0 6 7 16 15 23 21 17 19 40 -4 40 -36 0 -36 101 0 173 5 9 7 28 3
42 -7 27 7 35 74 48 28 6 35 4 39 -13 6 -23 51 -28 59 -6 3 8 15 11 30 8 19
-3 24 0 24 17 0 12 6 21 15 21 18 0 37 34 29 54 -4 10 -1 16 8 16 24 0 39 22
26 37 -8 10 -6 19 9 36 21 23 30 87 13 87 -22 0 -8 16 29 33 20 9 56 17 79 17
22 0 44 5 47 10 14 22 46 10 60 -22z m2536 -14 c8 -10 21 -13 36 -9 15 3 41
-3 71 -18 26 -13 64 -32 86 -41 28 -12 37 -21 33 -35 -2 -10 3 -28 12 -40 17
-22 17 -22 34 -3 15 17 22 18 42 8 14 -6 25 -17 25 -23 0 -7 6 -13 14 -13 7 0
19 -7 26 -16 11 -13 10 -16 -8 -21 -24 -6 -30 -23 -8 -23 7 0 16 -11 18 -24 4
-20 -2 -25 -41 -40 -25 -9 -58 -16 -73 -16 -40 0 -64 -47 -43 -86 18 -35 32
-44 75 -44 43 0 70 -14 46 -23 -13 -5 -13 -10 -3 -30 7 -13 26 -35 41 -49 31
-26 29 -48 -5 -48 -23 0 -24 -9 -2 -25 21 -16 25 -41 8 -55 -8 -6 -11 -18 -9
-25 4 -10 0 -12 -15 -8 -14 3 -23 0 -27 -11 -3 -9 -12 -16 -20 -16 -7 0 -11
-6 -8 -13 3 -8 -6 -18 -21 -25 -14 -6 -25 -17 -25 -25 0 -14 -35 -47 -50 -47
-6 0 -10 9 -10 20 0 27 -36 27 -43 -1 -5 -19 -7 -20 -36 -5 -37 20 -70 20 -95
1 -27 -20 -36 -19 -36 5 0 12 -6 20 -12 18 -26 -4 -56 14 -62 37 -5 18 -13 25
-30 25 -14 0 -28 9 -36 25 -10 18 -24 26 -59 30 -25 4 -53 8 -61 11 -8 2 -21
0 -29 -5 -7 -5 -30 -5 -52 0 -54 12 -85 -2 -93 -42 -5 -24 -2 -35 9 -42 19
-10 20 -37 0 -37 -17 0 -20 -16 -5 -25 15 -10 12 -25 -4 -19 -8 3 -23 1 -33
-5 -15 -9 -12 -10 17 -8 29 3 35 7 33 25 -2 12 2 22 7 22 16 0 11 48 -5 58
-13 6 -14 14 -6 34 11 29 40 38 85 26 16 -4 37 -3 47 2 9 6 24 7 32 4 12 -4
43 -9 85 -13 7 0 18 -12 24 -26 6 -14 17 -25 24 -25 7 0 21 -11 31 -23 22 -29
60 -50 73 -42 6 3 10 -3 10 -14 0 -25 31 -28 54 -6 18 19 34 19 80 0 39 -17
56 -13 56 11 0 8 5 14 10 14 6 0 10 -9 10 -19 0 -11 9 -23 21 -26 12 -4 30
-16 40 -26 23 -23 52 -24 73 -3 13 13 22 14 49 5 24 -8 42 -8 66 0 31 11 35 9
72 -27 21 -21 39 -43 39 -49 1 -15 51 -70 76 -83 27 -14 62 -11 68 5 4 10 12
9 35 -5 30 -17 30 -16 60 12 17 17 31 27 31 23 0 -4 -42 -74 -94 -155 -51 -81
-97 -157 -101 -170 -6 -19 -11 -22 -35 -17 -25 5 -29 2 -39 -27 -6 -18 -8 -34
-4 -36 27 -9 33 -20 27 -50 -8 -38 -34 -43 -57 -9 l-16 22 -7 -22 c-3 -12 -11
-20 -17 -17 -7 2 -23 -6 -37 -19 l-25 -23 -16 33 c-9 18 -13 31 -9 28 4 -2 17
3 29 11 17 13 20 19 10 30 -15 19 -29 18 -45 -3 -13 -17 -15 -17 -29 1 -8 11
-15 28 -15 37 0 30 -18 31 -55 2 -57 -45 -47 -68 28 -63 33 2 35 -10 5 -36
-18 -16 -20 -16 -15 -2 9 25 -2 29 -34 12 -29 -15 -38 -37 -19 -49 17 -11 11
-32 -12 -42 -20 -9 -25 -6 -40 26 -13 27 -17 31 -18 15 0 -11 3 -24 8 -28 4
-4 7 -13 7 -19 0 -20 30 -18 59 4 17 14 25 27 21 39 -7 21 19 22 53 0 25 -17
30 -32 7 -24 -9 4 -18 -3 -24 -19 -5 -13 -18 -27 -28 -31 -17 -7 -17 -8 -1
-20 20 -15 36 -76 20 -76 -6 0 -9 -11 -7 -25 3 -34 -1 -32 -24 14 -13 24 -16
42 -10 48 6 6 1 17 -15 32 -19 18 -31 21 -58 16 -30 -6 -34 -10 -30 -31 3 -19
9 -23 23 -19 11 4 19 2 19 -4 0 -6 7 -11 16 -11 9 0 14 -7 12 -17 -1 -10 1
-24 6 -31 17 -28 -5 -23 -47 12 -26 22 -55 36 -71 36 -15 0 -39 6 -54 13 -15
7 -51 19 -81 26 -45 11 -55 11 -62 0 -12 -19 -11 -39 2 -39 18 0 41 -29 37
-48 -2 -12 -11 -16 -31 -14 -22 3 -29 -2 -37 -24 -14 -36 -5 -58 21 -51 16 4
20 1 17 -16 -2 -14 -11 -23 -26 -25 -19 -3 -22 -8 -18 -35 3 -18 8 -43 12 -56
7 -22 5 -23 -22 -17 -80 18 -91 18 -107 2 -8 -9 -21 -16 -27 -16 -7 0 -23 -9
-37 -20 -16 -12 -30 -17 -37 -11 -23 18 -76 18 -93 -1 -12 -13 -19 -15 -29 -7
-11 9 -16 5 -23 -14 -14 -37 -35 -47 -29 -13 4 18 1 29 -8 33 -8 3 -11 9 -8
15 3 5 -4 12 -15 15 -16 4 -20 11 -16 27 6 20 5 20 -6 2 -10 -16 -9 -21 5 -31
9 -7 16 -17 16 -24 0 -6 4 -11 9 -11 6 0 9 -18 8 -40 -1 -39 -10 -50 -22 -30
-3 6 -16 8 -28 4 -16 -3 -36 5 -68 30 -49 37 -73 35 -67 -5 3 -26 -11 -29 -62
-15 -20 6 -27 2 -35 -16 -6 -14 -20 -24 -35 -26 -112 -11 -108 -9 -122 -60
-11 -37 -19 -48 -37 -50 -13 -2 -28 1 -34 7 -6 6 -19 11 -29 11 -10 0 -18 7
-18 16 0 9 -9 18 -21 21 -14 4 -18 11 -13 22 13 33 8 46 -22 60 -27 12 -31 18
-29 49 2 21 10 41 21 49 9 7 15 16 11 19 -3 3 -18 -6 -34 -20 -23 -22 -25 -28
-14 -35 12 -8 12 -12 2 -25 -11 -13 -8 -18 21 -36 18 -11 37 -21 42 -23 5 -2
3 -14 -4 -27 -11 -21 -10 -26 9 -38 26 -18 28 -52 3 -52 -17 0 -48 -46 -54
-81 -2 -9 8 -25 21 -36 l24 -20 -22 -32 -23 -33 -28 42 c-47 72 -106 96 -137
57 -10 -12 -31 -28 -47 -35 -28 -13 -30 -24 -11 -74 11 -27 -32 -65 -80 -72
-25 -4 -45 -11 -45 -17 0 -5 -6 -9 -14 -9 -15 0 -26 21 -26 51 0 11 -8 22 -17
26 -10 3 -33 21 -51 41 -29 30 -38 34 -69 29 -35 -6 -35 -6 -30 23 4 20 1 36
-12 51 -26 33 -14 66 22 60 4 -1 13 10 19 25 9 20 9 30 0 45 -7 11 -15 40 -19
65 -6 45 -7 46 -37 40 -17 -4 -48 -9 -69 -13 -30 -4 -44 -14 -64 -44 -27 -42
-48 -52 -38 -19 4 14 2 20 -9 20 -10 0 -15 8 -13 23 2 19 -2 22 -28 20 -17 -1
-38 -12 -48 -24 -15 -18 -24 -21 -62 -16 -25 4 -45 3 -45 -2 0 -20 -137 -34
-148 -16 -12 22 -46 12 -65 -19 -16 -25 -22 -27 -50 -21 -35 8 -95 7 -109 -1
-4 -3 -8 -23 -8 -45 0 -23 -5 -39 -12 -39 -28 0 -88 -35 -88 -51 0 -23 -14
-31 -61 -35 -30 -3 -39 0 -39 11 0 9 -6 18 -14 21 -8 3 -12 13 -9 24 3 10 1
20 -4 23 -12 8 -53 -20 -53 -35 0 -6 8 -4 18 5 23 21 39 22 22 1 -11 -13 -10
-16 6 -20 11 -3 24 -15 29 -27 11 -23 32 -29 52 -14 7 5 16 6 22 3 11 -7 41
20 41 37 0 15 55 47 81 47 16 0 19 7 19 45 l0 45 48 0 c26 0 53 -5 60 -12 15
-15 62 5 62 26 0 17 41 29 54 16 19 -19 109 -6 152 22 6 4 24 4 41 -1 19 -6
39 -4 59 4 16 8 22 14 14 15 -8 1 -1 8 15 15 31 14 50 11 39 -6 -3 -5 0 -17 7
-25 10 -13 10 -17 0 -23 -10 -6 -8 -10 5 -15 25 -10 49 1 64 30 15 27 52 47
113 58 34 6 37 5 39 -16 0 -13 2 -36 3 -51 1 -16 8 -33 15 -37 19 -11 4 -40
-20 -40 -31 0 -44 -44 -23 -77 20 -30 19 -84 -2 -96 -8 -4 -15 -13 -15 -19 0
-6 11 -3 25 6 13 9 34 16 46 16 20 0 21 -1 7 -17 -9 -10 -23 -33 -33 -51 -15
-31 -15 -35 0 -52 15 -16 14 -21 -7 -61 -13 -24 -32 -65 -42 -92 -12 -32 -27
-52 -47 -62 -30 -16 -32 -21 -29 -67 1 -25 -2 -28 -29 -28 -22 0 -31 -5 -31
-17 0 -9 -7 -24 -16 -34 -14 -16 -13 -20 11 -47 29 -33 30 -37 9 -66 -13 -19
-14 -18 -23 6 -12 32 -73 71 -96 62 -11 -5 -21 -1 -27 9 -5 10 -18 17 -29 17
-16 0 -18 -5 -13 -25 7 -27 2 -30 -26 -15 -13 7 -21 7 -25 0 -4 -6 -11 -8 -16
-4 -13 7 -39 -14 -39 -32 0 -8 9 -14 19 -14 29 0 35 -17 10 -30 -18 -10 -27
-5 -79 44 -50 48 -64 56 -97 56 -21 1 -49 7 -63 15 -36 21 -61 18 -102 -10
-31 -21 -45 -24 -78 -19 -52 8 -61 21 -62 85 0 36 -6 61 -18 77 -15 18 -17 29
-9 48 18 49 -11 98 -67 113 -20 5 -43 29 -79 82 -28 41 -72 95 -98 120 -47 47
-58 77 -37 109 8 12 12 12 18 3 4 -7 22 -15 38 -19 33 -6 64 14 64 43 0 8 6
13 13 10 6 -2 11 -14 10 -26 -3 -23 12 -29 20 -7 7 17 -28 51 -42 41 -6 -3
-11 -12 -11 -19 0 -8 -7 -19 -15 -26 -13 -11 -22 -9 -50 6 -19 10 -35 21 -35
24 0 4 13 19 30 35 21 21 28 34 24 51 -3 12 1 33 11 47 10 16 14 34 9 51 -4
18 2 45 19 84 31 70 42 112 30 112 -6 0 -18 -16 -29 -35 -10 -19 -26 -35 -36
-35 -9 0 -24 -7 -33 -16 -10 -11 -20 -13 -26 -7 -13 13 6 155 27 198 21 44 11
73 -33 91 -29 12 -38 13 -51 2 -14 -11 -15 -10 -8 12 3 14 9 37 12 53 4 17 13
27 25 27 15 0 17 7 12 55 l-6 56 44 -7 c24 -4 53 -15 65 -25 11 -11 29 -19 41
-19 11 0 42 -7 68 -15 35 -10 53 -11 62 -3 7 6 27 7 45 4 108 -22 153 -23 184
-5 17 11 38 19 47 19 8 0 17 5 19 11 2 6 21 15 43 19 22 4 63 17 91 28 28 10
83 22 122 26 71 7 72 7 84 -19 9 -19 9 -28 0 -37 -7 -7 -12 -19 -12 -28 1 -11
5 -9 19 8 24 28 34 28 25 0 -6 -20 -5 -21 10 -9 13 11 16 11 16 0 0 -10 2 -11
13 0 10 10 8 15 -7 27 -11 8 -25 14 -31 14 -6 0 -16 14 -22 31 l-12 31 -77 -7
c-42 -4 -102 -16 -133 -27 -31 -10 -70 -23 -86 -27 -29 -8 -37 -11 -102 -45
-39 -20 -114 -20 -172 0 -40 13 -45 13 -61 -1 -14 -12 -23 -14 -37 -7 -10 6
-40 13 -67 17 -28 5 -58 16 -69 25 -10 10 -38 21 -63 25 -24 3 -46 11 -50 16
-10 17 52 136 93 176 21 21 47 51 57 66 17 28 17 29 -3 51 -25 27 -26 30 -4
56 18 21 43 27 43 10 0 -5 8 -10 19 -10 15 0 21 13 32 61 14 65 46 109 77 109
22 0 32 25 32 83 l0 38 54 -6 c48 -6 55 -5 69 15 8 12 13 30 10 40 -3 10 3 32
13 48 17 29 17 32 0 57 -10 15 -27 30 -38 33 -15 4 -18 10 -13 33 5 21 2 31
-9 35 -9 3 -13 10 -10 15 8 14 22 11 45 -12 16 -16 23 -18 34 -9 16 13 32 6
58 -27 10 -13 29 -23 41 -23 13 0 34 -8 47 -19 13 -10 30 -16 37 -14 6 3 25
-1 41 -8 25 -11 29 -18 26 -47 -5 -50 50 -126 95 -130 18 -2 36 2 40 9 13 20
31 0 24 -27 -4 -14 -1 -31 7 -40 7 -9 18 -26 24 -38 8 -16 23 -22 60 -26 55
-6 89 -22 103 -46 5 -8 23 -16 41 -16 31 -1 57 -18 27 -18 -8 0 -18 -5 -21
-10 -7 -12 13 -42 24 -36 4 3 32 -1 62 -7 47 -11 54 -16 54 -36 0 -23 21 -39
52 -40 7 -1 19 15 27 34 11 26 21 35 38 35 13 0 29 5 35 11 8 8 14 5 22 -10
10 -18 18 -20 49 -15 45 7 73 -14 47 -36 -21 -18 -19 -29 10 -40 14 -5 25 -16
25 -25 0 -16 30 -20 46 -6 5 5 26 16 48 25 36 15 38 15 31 -2 -5 -9 -21 -53
-36 -97 -30 -84 -37 -135 -18 -135 8 0 9 -13 5 -42 -5 -29 -3 -44 6 -49 19
-12 -5 -45 -31 -42 -11 2 -33 -2 -48 -9 -16 -6 -33 -10 -39 -9 -7 1 -14 -7
-18 -16 -23 -67 -118 -133 -159 -111 -10 5 -21 7 -24 5 -8 -9 -97 25 -110 41
-7 9 -13 26 -13 38 0 26 -37 39 -59 21 -8 -7 -23 -31 -33 -54 -16 -37 -86
-109 -96 -99 -2 3 8 22 22 43 14 20 26 46 26 56 0 10 7 28 15 40 12 19 13 28
2 50 -13 28 -22 33 -32 17 -11 -18 -25 -11 -22 12 3 30 -26 35 -52 9 -12 -12
-26 -20 -32 -19 -6 2 -14 -3 -16 -9 -8 -21 17 -15 49 12 16 14 33 25 38 25 13
0 -2 -44 -19 -57 -9 -6 -13 -15 -9 -19 5 -4 16 0 25 8 29 24 49 27 60 9 8 -12
7 -22 -3 -36 -8 -10 -14 -26 -14 -35 0 -9 -13 -37 -29 -62 -29 -45 -30 -58 -6
-58 20 0 84 68 106 113 12 23 26 45 32 49 18 11 36 -3 39 -29 5 -47 76 -80
178 -84 39 -2 93 29 106 61 14 32 15 33 66 26 29 -4 55 -9 60 -12 17 -10 -7
-70 -44 -108 -30 -32 -38 -48 -38 -77 0 -21 5 -41 11 -45 6 -4 9 -19 5 -38 -4
-22 -3 -27 4 -16 13 20 13 57 0 65 -19 12 -12 73 10 85 11 6 20 17 20 25 0 7
8 16 19 20 22 7 36 72 20 91 -6 7 -28 15 -50 19 -21 4 -39 10 -39 13 0 12 64
36 88 34 33 -3 65 37 47 58 -17 20 -8 80 14 87 9 3 23 14 31 25 13 15 32 20
103 22 48 2 93 9 101 15 10 9 20 9 41 -1 26 -12 30 -10 66 32 41 48 61 56 81
33 11 -13 13 -13 18 2 5 14 9 13 33 -9 40 -37 73 -33 75 8 0 11 23 26 40 26
10 0 9 -8 -5 -30 -16 -29 -16 -30 2 -43 25 -19 75 -19 82 -1 4 11 14 13 37 9
31 -6 31 -6 7 9 -28 16 -51 11 -51 -10 0 -15 -28 -15 -62 0 -16 7 -16 10 -1
32 12 19 13 27 3 38 -15 19 -60 1 -60 -25 0 -10 -4 -20 -9 -23 -15 -10 -43 6
-37 20 3 8 4 14 3 15 -1 0 -30 3 -64 5 l-62 5 -31 -46 c-33 -48 -40 -51 -72
-34 -15 8 -26 8 -44 -1 -20 -11 -41 -14 -94 -10 -41 2 -83 -9 -103 -29 -29
-27 -67 -28 -67 -2 0 24 49 173 61 186 12 12 12 45 -1 45 -6 0 -33 -11 -61
-25 -43 -22 -50 -24 -56 -10 -3 9 -17 21 -31 26 -24 9 -24 10 -7 29 14 16 15
22 5 35 -15 18 -6 45 14 45 9 0 20 9 26 19 10 21 4 51 -11 51 -5 0 -9 9 -9 20
0 11 4 20 8 20 22 0 81 70 97 115 10 28 28 61 41 75 28 31 46 77 39 100 -3 9
1 23 9 29 8 7 12 19 9 27 -3 8 5 23 20 34 14 11 41 58 62 107 20 49 53 113 73
143 20 30 37 56 38 58 2 4 95 -14 114 -22 11 -4 19 3 27 24 12 31 40 40 49 16
3 -8 1 -24 -6 -35 -7 -14 -7 -21 -1 -21 6 0 18 15 27 33 9 17 24 41 34 52 10
11 21 30 24 42 5 15 18 23 44 27 49 8 132 4 132 -7 0 -4 15 -7 33 -5 27 3 32
7 35 33 3 21 14 36 38 52 26 17 34 19 34 8 0 -8 9 -19 20 -25 11 -6 20 -19 20
-28 0 -23 19 -42 42 -42 27 0 60 -38 53 -61 -7 -20 18 -28 30 -9 3 6 -1 7 -12
4 -10 -3 -2 4 17 14 36 21 53 21 32 0 -8 -8 -9 -15 0 -25 8 -10 4 -15 -20 -24
-24 -8 -29 -15 -28 -37 3 -57 38 -69 86 -29 15 12 41 29 58 38 20 12 32 28 37
50 4 19 12 39 17 46 6 7 4 14 -7 20 -14 8 -14 12 -1 38 12 23 13 32 3 44 -9
11 -9 15 1 18 17 6 15 23 -3 23 -20 0 -20 56 0 64 8 3 15 9 14 13 -4 27 12 31
32 7z m365 -1463 c-3 -4 3 -16 14 -26 11 -10 20 -31 20 -47 0 -15 5 -28 10
-28 6 0 10 4 10 10 0 15 42 50 62 50 10 0 18 7 18 18 1 16 1 16 14 0 7 -10 21
-18 30 -18 22 0 20 -16 -8 -102 -13 -40 -29 -96 -36 -125 -10 -43 -15 -51 -33
-51 -12 1 -27 5 -34 10 -7 6 -15 3 -20 -6 -5 -10 -16 -13 -31 -9 -26 6 -28 18
-7 39 8 9 15 25 15 36 0 19 2 19 23 6 35 -22 75 -21 82 2 8 24 -1 40 -21 40
-13 0 -13 4 1 30 14 27 14 30 -4 40 -26 13 -31 13 -31 -3 0 -28 -38 -59 -67
-55 -27 3 -48 38 -23 38 6 0 18 7 27 15 14 14 14 18 -1 34 -9 10 -16 26 -16
35 0 13 -6 17 -20 13 -24 -6 -28 18 -5 27 8 3 15 12 15 21 0 8 5 15 11 15 5 0
8 -4 5 -9z m-25 -197 c6 -7 19 -10 29 -7 20 5 28 -11 10 -22 -5 -3 -7 -12 -3
-21 3 -8 -5 -26 -18 -40 -15 -16 -19 -28 -13 -34 14 -14 74 -24 74 -13 0 9 57
9 67 0 3 -3 0 -22 -7 -42 -23 -71 -47 -211 -46 -270 2 -47 10 -78 40 -140 45
-95 87 -233 56 -185 -8 13 -10 13 -10 -2 0 -9 9 -23 21 -31 16 -12 21 -28 23
-78 2 -35 7 -77 11 -93 7 -25 5 -28 -8 -23 -10 4 -27 2 -39 -2 -25 -10 -14
-17 32 -23 23 -3 26 -8 33 -73 4 -38 5 -117 3 -175 -3 -58 -5 -117 -6 -132 0
-18 -5 -28 -15 -28 -8 0 -15 4 -15 10 0 12 -62 1 -71 -13 -4 -5 -15 -4 -29 3
-13 7 -41 12 -63 12 -22 -1 -50 6 -63 15 -44 28 -121 6 -136 -38 -2 -5 -23
-11 -48 -13 -25 -2 -65 -8 -89 -12 -34 -5 -43 -4 -39 6 3 11 29 31 45 36 9 2
-24 54 -34 54 -19 0 -16 11 14 42 19 20 27 39 28 68 1 23 9 48 19 59 15 17 16
23 6 36 -7 8 -18 15 -25 15 -7 0 -15 9 -18 20 -4 17 4 26 51 48 31 15 61 37
66 49 7 14 18 21 35 20 23 -2 26 2 26 33 0 41 10 60 32 60 9 0 36 16 60 36 24
20 56 39 71 43 17 5 27 14 27 27 0 15 6 18 32 16 17 -2 34 2 38 9 13 19 24 79
14 73 -5 -3 -9 -16 -9 -28 0 -31 -19 -46 -56 -43 -24 2 -29 -2 -28 -20 0 -15
-7 -23 -26 -27 -15 -2 -46 -21 -69 -40 -24 -20 -49 -36 -56 -36 -28 0 -47 -32
-40 -67 6 -36 4 -38 -25 -23 -17 9 -22 6 -34 -23 -9 -24 -23 -36 -42 -41 -16
-4 -46 -18 -66 -32 -21 -13 -44 -24 -52 -24 -8 0 -18 -4 -21 -10 -3 -5 -11
-10 -17 -10 -6 0 -2 10 10 23 30 32 42 69 30 92 -6 10 -11 43 -12 74 -1 53 -2
56 -28 59 -14 2 -32 10 -38 18 -7 8 -18 14 -26 14 -7 0 -14 10 -16 23 -2 18
-9 22 -35 21 -31 -2 -33 0 -33 33 0 45 -22 62 -80 63 -70 0 -90 -9 -90 -37 0
-22 -3 -24 -27 -19 -17 5 -29 3 -34 -6 -6 -10 -11 -9 -21 5 -12 16 -15 16 -56
1 -41 -17 -45 -17 -95 4 -46 19 -81 23 -187 22 -14 0 -41 2 -60 4 -19 3 -40 5
-46 5 -6 1 -31 27 -55 59 -24 31 -52 63 -61 70 -21 15 -24 34 -4 26 17 -6 46
38 46 71 0 31 30 45 88 42 41 -1 72 15 72 39 0 19 15 18 35 -2 14 -14 20 -15
40 -4 19 10 23 19 19 37 -7 27 20 34 30 7 3 -8 10 -12 16 -9 5 3 10 2 10 -3 0
-18 51 -45 63 -33 7 7 16 7 29 0 23 -13 48 -5 48 15 0 7 7 16 15 20 8 3 15 12
15 20 0 10 6 13 16 9 10 -4 20 0 25 10 10 18 66 20 87 4 13 -11 62 9 62 25 0
4 9 8 21 8 11 0 28 7 36 16 10 9 24 13 37 10 12 -3 39 -9 60 -13 39 -6 39 -6
32 23 -17 74 -17 82 9 88 20 5 25 13 25 37 0 26 -3 30 -22 27 -14 -2 -23 2
-22 10 3 41 4 42 36 40 25 -2 33 1 36 16 5 24 -17 66 -35 66 -15 0 -18 16 -4
24 10 6 95 -17 149 -40 18 -8 38 -12 43 -8 12 7 75 -32 83 -51 6 -17 42 -20
51 -5 4 6 14 5 27 -3 16 -9 22 -9 25 1 3 6 12 12 20 12 9 0 13 6 10 14 -17 44
-27 98 -20 109 5 8 9 6 11 -8 2 -11 8 -25 13 -31z m-5179 -237 c15 -14 27 -39
31 -64 11 -64 21 -68 191 -70 209 -3 253 -9 282 -40 15 -16 36 -26 62 -27 22
-2 44 -6 50 -10 6 -3 13 -2 16 3 15 23 136 -39 136 -69 0 -11 -4 -21 -9 -24
-18 -11 -18 -56 0 -83 25 -37 24 -46 -5 -41 -25 5 -36 -7 -36 -40 0 -22 -40
-62 -62 -62 -11 0 -16 -4 -13 -10 3 -5 0 -10 -9 -10 -8 0 -17 -6 -20 -12 -3
-10 -8 -8 -15 4 -10 15 -14 15 -51 -3 -39 -19 -40 -21 -34 -59 7 -44 8 -43
-58 -40 -22 1 -38 -3 -38 -9 0 -7 -10 -9 -25 -5 -20 5 -25 3 -25 -14 0 -11
-11 -27 -24 -35 -21 -14 -26 -14 -45 -1 -21 15 -41 12 -41 -7 0 -14 -30 -42
-70 -66 -27 -16 -40 -19 -60 -11 -14 5 -53 7 -86 3 -40 -4 -64 -3 -69 4 -11
18 -73 13 -84 -6 -14 -26 -31 -4 -24 31 4 22 17 33 52 50 53 24 104 72 95 88
-3 5 -1 20 6 33 16 29 7 55 -19 55 -10 0 -21 6 -24 13 -3 7 -24 19 -48 27 -57
18 -120 66 -112 85 3 10 -2 15 -15 15 -12 0 -42 11 -68 25 -34 18 -50 22 -60
14 -13 -11 -52 5 -67 28 -5 8 -17 9 -35 3 l-29 -8 -1 54 c-1 30 -7 64 -13 76
-10 18 -8 24 7 35 43 32 53 34 74 13 24 -24 33 -25 49 -6 7 8 20 12 30 9 26
-7 60 14 71 43 8 19 17 24 44 24 35 0 63 21 51 40 -3 5 1 10 10 10 9 0 35 16
58 35 22 19 44 35 47 35 4 0 18 -10 32 -23z m3855 -405 c34 -42 71 -86 82 -97
20 -17 67 -27 131 -26 121 1 140 -1 174 -18 21 -11 32 -22 26 -26 -6 -4 -8
-15 -5 -26 4 -13 1 -21 -12 -26 -35 -13 -45 -48 -15 -56 13 -4 13 -5 -4 -6
-33 -2 -51 -28 -36 -52 10 -15 9 -23 0 -39 -7 -11 -16 -20 -20 -20 -5 0 -8 -9
-8 -20 0 -15 -7 -20 -25 -20 -18 0 -25 -5 -25 -20 0 -11 4 -20 9 -20 4 0 6
-11 3 -25 -2 -14 -8 -25 -12 -25 -15 0 -20 -31 -8 -49 14 -22 5 -49 -19 -58
-10 -3 -28 -15 -40 -26 l-22 -20 -31 32 c-28 27 -38 31 -84 30 -29 -1 -62 1
-73 5 -12 4 -24 2 -28 -4 -3 -5 -17 -10 -30 -10 -13 0 -27 -4 -30 -10 -3 -5
-15 -10 -26 -10 -14 0 -19 7 -19 29 0 26 -4 29 -46 35 -59 8 -88 -7 -81 -41 3
-19 0 -27 -14 -30 -11 -3 -19 -10 -19 -16 0 -25 -18 13 -40 83 -12 41 -27 78
-33 82 -15 9 11 38 34 38 22 0 37 25 37 63 0 19 11 40 33 63 26 26 30 37 21
46 -7 7 -12 20 -12 29 0 10 -5 21 -10 24 -13 8 -2 -45 11 -60 5 -5 -4 -21 -22
-37 -21 -19 -32 -40 -34 -63 -4 -43 -12 -55 -34 -55 -9 0 -27 -12 -40 -26 -21
-24 -21 -26 -4 -30 13 -4 28 -32 48 -91 27 -78 55 -119 55 -80 0 8 9 17 20 20
16 4 19 11 15 29 -9 34 12 48 62 41 37 -5 41 -8 40 -32 -2 -22 3 -27 26 -29
16 -2 34 2 42 8 8 7 19 9 25 5 5 -3 17 0 25 9 11 11 23 12 47 6 17 -5 46 -8
65 -5 38 5 75 -23 93 -69 16 -44 12 -66 -14 -76 -14 -5 -26 -19 -28 -32 -2
-16 -9 -22 -23 -21 -49 7 -56 -30 -9 -47 13 -5 24 -16 24 -25 0 -9 9 -15 21
-15 15 0 20 -5 17 -22 -3 -20 -9 -23 -45 -23 -28 0 -46 -6 -55 -17 -14 -19
-165 -68 -209 -68 -36 0 -60 -10 -53 -21 3 -5 37 -9 76 -9 55 0 69 -3 65 -14
-3 -7 0 -25 7 -38 9 -17 10 -31 4 -42 -11 -19 -13 -89 -4 -105 5 -7 -7 -11
-36 -11 -48 -1 -72 -14 -83 -48 -5 -18 -12 -22 -28 -18 -12 3 -27 0 -34 -6
-10 -8 -15 -5 -22 13 -5 14 -5 28 0 34 19 19 8 42 -32 68 -52 35 -62 34 -57
-3 3 -17 1 -33 -4 -36 -4 -3 -8 -10 -8 -16 0 -7 5 -6 15 2 9 8 12 22 8 41 l-6
30 42 -28 c29 -19 40 -32 35 -42 -7 -18 -7 -58 1 -71 6 -10 89 0 93 11 2 4 14
19 27 35 20 23 28 26 59 21 20 -3 38 -1 42 4 4 6 17 0 33 -15 20 -19 30 -23
38 -15 9 9 19 6 41 -10 17 -11 32 -21 35 -21 8 0 46 78 40 83 -3 3 -2 10 1 16
9 14 46 -24 46 -48 0 -14 5 -18 19 -14 27 7 60 -13 55 -34 -5 -23 3 -34 43
-54 22 -12 34 -14 42 -6 17 17 35 -7 40 -55 1 -5 12 -8 25 -8 35 0 52 -25 38
-55 -7 -14 -20 -25 -29 -25 -11 0 -26 -16 -36 -37 -18 -37 -18 -37 5 -55 13
-10 29 -15 36 -13 8 3 18 2 24 -1 12 -8 -22 -33 -45 -34 -10 0 -25 -6 -32 -14
-12 -12 -12 -17 3 -38 10 -13 19 -42 20 -66 1 -38 -2 -44 -30 -58 -31 -16 -31
-17 -12 -31 15 -11 16 -15 5 -22 -9 -6 -11 -20 -6 -49 4 -25 2 -42 -4 -47 -21
-12 -12 -35 14 -35 16 0 25 -6 25 -15 0 -9 6 -15 13 -14 25 3 47 -1 47 -9 0
-5 -10 -8 -22 -8 -20 1 -23 -4 -23 -39 l0 -40 38 3 c33 3 39 0 44 -18 5 -19
11 -21 39 -17 32 5 32 5 27 -28 -4 -24 0 -38 15 -53 41 -41 37 -52 -53 -147
-46 -50 -85 -94 -85 -99 0 -4 -14 -24 -31 -43 -18 -21 -28 -41 -24 -51 3 -8
-2 -23 -11 -33 -13 -15 -26 -17 -63 -12 -53 7 -81 19 -81 35 0 6 -16 28 -36
50 -32 36 -35 44 -29 77 4 20 11 38 16 39 15 6 10 22 -6 22 -8 0 -15 5 -15 11
0 5 -4 8 -9 5 -15 -9 -94 37 -97 56 -1 9 4 22 12 29 8 6 11 15 8 20 -3 5 0 18
6 30 9 15 15 18 23 10 30 -30 47 -3 26 43 -11 23 -14 24 -32 11 -18 -12 -24
-12 -48 2 -16 9 -29 26 -31 37 -4 28 -43 28 -70 -1 l-21 -23 -29 32 c-21 24
-27 39 -23 58 8 41 -7 54 -51 43 -32 -7 -40 -14 -42 -35 -2 -19 -11 -28 -30
-33 -16 -4 -28 -2 -30 4 -6 19 -40 12 -56 -11 -21 -30 -38 -12 -38 38 0 22 -6
46 -13 54 -8 8 -16 28 -19 44 -6 35 -2 31 -56 51 -63 23 -74 23 -78 0 -5 -24
-22 -37 -40 -30 -19 7 -49 -33 -57 -72 -6 -34 -18 -40 -44 -24 -12 8 -13 15
-4 34 11 23 12 65 2 60 -38 -17 -57 -15 -44 7 4 7 22 9 50 4 41 -6 44 -4 49
17 15 75 14 99 -5 123 -24 30 -24 32 1 39 26 7 36 35 22 58 -14 22 -5 52 14
45 8 -3 21 -9 29 -12 9 -4 17 1 21 10 3 9 12 16 20 16 21 0 29 48 11 68 -11
12 -13 22 -7 32 18 28 12 41 -16 34 -17 -4 -29 -2 -34 6 -11 17 -33 2 -26 -17
8 -20 -11 -43 -35 -43 -12 0 -19 7 -19 20 0 11 -5 20 -11 20 -5 0 -8 4 -5 9 9
14 -4 41 -20 41 -8 0 -14 10 -14 25 0 13 -5 35 -11 49 -9 20 -8 29 7 50 17 24
24 26 63 20 l44 -6 -7 36 c-6 31 -4 36 12 36 10 0 24 6 30 12 10 10 14 8 18
-10 5 -16 14 -22 34 -22 16 0 30 7 34 15 3 8 12 15 21 15 8 0 15 8 15 18 0 24
8 32 26 25 9 -3 14 -20 14 -44 0 -39 15 -53 26 -24 4 8 10 13 14 10 5 -3 11
-1 15 5 3 5 -3 10 -14 10 -11 0 -22 -8 -25 -17 -3 -10 -4 1 -2 25 4 36 1 42
-15 42 -10 0 -22 1 -25 3 -4 1 -12 -7 -18 -18 -26 -45 -86 -74 -86 -41 0 24
-18 28 -56 14 -33 -12 -35 -15 -31 -45 6 -32 5 -33 -21 -27 -15 4 -29 9 -31
11 -3 2 -19 -11 -37 -28 -29 -28 -31 -35 -22 -58 5 -14 12 -37 14 -51 3 -14
14 -32 26 -41 11 -9 18 -21 14 -27 -3 -6 -2 -13 4 -17 5 -3 10 -15 10 -26 0
-14 7 -19 28 -19 31 0 52 16 52 40 0 13 7 15 30 12 26 -4 28 -7 19 -24 -8 -15
-7 -22 6 -32 20 -15 12 -56 -11 -56 -8 0 -14 -4 -14 -9 0 -6 -15 -7 -34 -4
-30 5 -34 3 -40 -23 -5 -18 -3 -30 3 -32 6 -2 11 -10 11 -17 0 -18 -20 -30
-29 -18 -10 16 -68 43 -91 43 -19 0 -25 -13 -21 -52 2 -12 -5 -18 -19 -18 -34
0 -59 -18 -54 -38 3 -11 -6 -28 -26 -45 -36 -32 -66 -32 -63 0 2 21 -46 73
-67 73 -5 0 -14 8 -19 19 -8 15 -5 24 14 43 13 13 26 35 30 50 6 24 2 27 -60
51 -36 14 -72 24 -78 21 -7 -2 -27 12 -46 31 -31 33 -32 38 -21 65 10 24 19
30 42 30 34 0 93 52 85 75 -3 7 1 49 9 92 21 106 21 108 38 94 16 -13 75 -3
94 16 7 7 20 13 27 13 14 0 55 -51 55 -68 0 -18 34 -24 46 -8 6 9 21 16 32 16
11 0 24 5 27 10 3 6 23 8 43 5 31 -5 44 0 84 30 43 31 47 39 46 72 -1 24 -8
43 -20 51 -23 16 -15 32 17 32 26 0 42 29 23 41 -7 4 -9 11 -5 15 11 11 -44
64 -65 64 -11 0 -33 7 -49 16 -25 13 -33 13 -46 2 -14 -11 -15 -10 -9 8 5 17
-3 29 -38 58 -68 56 -93 61 -262 61 l-152 0 -22 33 c-13 18 -21 34 -19 36 2 2
14 9 27 15 32 17 29 51 -5 51 -21 0 -24 3 -15 12 15 15 53 18 69 6 18 -15 35
1 30 28 -5 29 4 31 27 5 10 -11 25 -17 35 -14 28 7 79 -23 83 -49 3 -25 38
-38 38 -15 0 8 7 17 15 21 21 8 19 29 -4 43 -21 13 -34 50 -20 59 5 3 9 14 9
24 0 13 8 20 28 22 23 3 27 8 30 41 2 29 9 41 27 49 14 6 32 31 46 62 12 28
32 73 45 100 15 32 20 53 14 60 -5 7 -7 21 -5 31 2 11 4 25 4 31 1 6 12 23 26
38 24 26 45 27 45 2 0 -7 16 -20 35 -29 33 -16 41 -32 36 -74 -3 -20 33 -20
72 1 31 16 42 18 57 8 11 -6 26 -9 35 -6 8 3 15 2 15 -3 0 -5 22 -9 49 -9 27
1 47 5 44 9 -3 5 -22 7 -43 5 -40 -4 -66 14 -53 35 4 6 8 15 8 19 0 3 4 10 9
15 5 5 6 3 2 -4 -10 -17 2 -16 20 1 20 20 17 29 -6 23 -22 -6 -24 -3 -34 35
-5 23 -3 28 18 34 13 3 33 16 44 29 30 34 68 21 114 -41 21 -27 42 -50 47 -52
14 -5 52 64 45 81 -3 9 -12 18 -20 21 -43 16 20 111 76 115 9 1 43 -34 77 -77z
m-2927 -102 c0 -10 6 -23 13 -27 15 -10 47 -78 47 -100 0 -9 -3 -13 -6 -10 -4
3 -15 2 -25 -4 -29 -15 -7 -49 31 -49 23 0 30 -5 30 -20 0 -24 -21 -70 -32
-70 -14 0 -9 -30 7 -36 8 -4 15 -17 15 -30 0 -13 5 -24 10 -24 6 0 10 -12 10
-26 0 -21 3 -24 21 -19 13 4 27 1 38 -9 10 -9 28 -15 41 -14 35 4 35 -18 -1
-36 -18 -9 -36 -16 -41 -16 -5 0 -23 -10 -41 -22 -18 -13 -34 -24 -36 -25 -2
-1 2 -16 9 -32 10 -25 9 -34 -4 -53 -24 -34 -19 -45 6 -13 19 24 20 31 10 59
-11 27 -10 33 5 44 31 24 123 63 133 57 13 -8 13 -2 -2 30 -9 21 -17 26 -37
22 -15 -3 -29 1 -36 9 -6 8 -20 16 -33 17 -14 1 -22 8 -22 19 0 10 -4 18 -10
18 -5 0 -10 9 -10 20 0 10 -7 23 -17 28 -15 9 -14 12 5 37 13 16 22 42 22 61
0 32 -2 34 -36 34 -28 0 -35 3 -32 18 2 9 10 17 17 17 8 0 17 9 21 19 4 14 9
16 14 8 4 -7 16 -12 27 -12 16 0 19 4 14 21 -5 14 -3 19 4 15 6 -4 23 1 38 11
17 11 24 13 19 4 -5 -8 -4 -16 5 -21 10 -7 10 -11 0 -24 -8 -9 -20 -16 -27
-16 -8 0 -14 -4 -14 -10 0 -5 14 -10 31 -10 23 0 32 5 36 21 4 15 8 17 14 8 6
-10 12 -10 27 4 26 24 30 22 28 -14 -2 -21 4 -33 17 -41 14 -7 16 -12 8 -18
-8 -4 -1 -12 20 -20 29 -12 33 -12 46 6 9 11 12 32 9 51 -2 18 -2 32 2 32 24
-4 42 3 42 16 0 13 5 12 28 -5 24 -18 43 -24 99 -29 7 0 15 -23 19 -51 4 -31
14 -56 24 -63 10 -7 18 -16 20 -22 8 -31 21 -55 30 -55 5 0 10 -5 10 -11 0 -7
-13 -10 -34 -7 -28 3 -36 0 -40 -16 -3 -12 1 -24 9 -29 8 -4 15 -14 15 -21 0
-8 7 -16 15 -20 8 -3 15 -15 15 -26 0 -18 6 -20 50 -19 28 1 53 6 56 11 3 5
19 6 34 3 16 -3 31 -2 35 4 10 17 40 13 68 -9 14 -11 36 -20 50 -20 13 0 32
-9 42 -20 10 -12 25 -18 33 -15 25 9 70 -23 82 -59 13 -40 3 -69 -30 -86 -23
-12 -26 -35 -6 -43 12 -5 12 -14 4 -48 -8 -31 -8 -47 0 -60 7 -10 12 -26 12
-35 0 -9 7 -14 18 -12 9 2 31 -11 50 -29 35 -35 51 -40 70 -21 11 11 14 7 27
-38 2 -6 -1 -16 -7 -22 -6 -6 -2 -15 13 -26 38 -26 -4 -20 -63 9 -59 30 -64
30 -73 8 -5 -14 -4 -15 6 -6 9 9 23 6 60 -13 60 -30 99 -32 99 -4 0 12 -5 17
-14 14 -10 -4 -13 5 -13 36 0 51 -13 66 -42 50 -20 -10 -27 -7 -61 29 -23 23
-42 36 -46 30 -3 -6 -13 2 -21 18 -14 26 -13 56 2 94 3 9 -1 23 -9 32 -14 14
-13 17 11 35 27 20 36 67 19 104 -6 13 -2 17 21 20 21 2 37 -6 67 -35 42 -40
71 -43 107 -11 8 8 20 14 26 14 6 0 13 7 17 15 3 8 14 15 24 15 10 0 33 11 52
25 39 29 54 31 94 10 15 -8 43 -15 61 -15 25 0 48 -12 94 -51 34 -28 61 -58
61 -67 0 -10 11 -30 24 -47 l24 -30 159 -1 c131 -1 165 -4 193 -19 63 -33 100
-66 97 -88 -2 -17 3 -22 23 -22 79 -1 133 -32 145 -83 6 -27 4 -32 -13 -32
-11 0 -26 -7 -33 -16 -11 -14 -10 -19 6 -33 11 -9 21 -30 22 -46 2 -27 -4 -35
-46 -62 -39 -26 -55 -31 -83 -26 -21 3 -38 1 -42 -5 -4 -6 -14 -8 -23 -5 -10
4 -22 -3 -34 -18 l-18 -24 -10 25 c-25 61 -87 93 -108 56 -4 -8 -21 -16 -38
-18 -26 -3 -30 1 -35 26 -7 40 -33 48 -29 10 1 -16 -1 -36 -4 -44 -12 -31 -38
-180 -33 -189 11 -16 -42 -61 -72 -61 -16 0 -32 3 -36 7 -4 4 -13 8 -19 8 -7
1 -24 5 -39 9 -36 11 -38 48 -4 64 19 8 23 17 21 42 -1 18 -8 36 -15 40 -15 9
-4 128 16 179 8 18 14 41 14 51 0 10 6 23 14 30 21 16 9 40 -20 40 -17 0 -28
-8 -34 -26 -9 -22 -15 -26 -39 -21 -31 6 -51 -7 -51 -34 0 -15 -7 -17 -47 -12
-63 7 -93 5 -107 -6 -6 -6 -34 -11 -61 -13 -43 -3 -50 -6 -53 -25 -3 -21 1
-23 45 -23 56 -1 83 -17 83 -51 0 -33 -11 -46 -40 -50 -21 -3 -24 -9 -22 -31
3 -32 1 -33 -61 -14 -46 14 -97 11 -97 -5 0 -5 -19 -8 -42 -6 -42 2 -43 3 -50
46 -5 28 -4 49 3 57 6 7 9 30 7 51 -2 32 -7 39 -28 41 -36 5 -51 21 -45 46 6
21 6 21 -9 2 -9 -11 -16 -23 -16 -26 0 -12 53 -35 72 -32 14 3 18 -3 18 -25 0
-45 -22 -83 -48 -83 -31 0 -72 -28 -66 -45 3 -7 -5 -20 -17 -28 -20 -15 -23
-14 -39 6 -14 17 -17 33 -13 74 8 71 -8 91 -47 63 -16 -11 -31 -34 -35 -51 -9
-38 -24 -44 -78 -30 -36 9 -44 8 -54 -7 -7 -9 -19 -24 -27 -32 -8 -8 -20 -27
-27 -42 -16 -36 -35 -35 -53 1 -9 16 -21 31 -29 34 -17 6 -66 -3 -73 -14 -3
-5 -13 -9 -22 -9 -30 0 -90 -58 -97 -93 -4 -17 -12 -38 -17 -44 -12 -15 4 -39
33 -48 25 -8 24 -31 -1 -38 -16 -4 -18 -11 -13 -43 l6 -37 -46 6 c-25 4 -48 3
-51 -2 -3 -4 -11 -41 -17 -81 -11 -67 -11 -74 6 -86 12 -9 16 -20 12 -36 -4
-13 0 -29 8 -38 17 -19 30 -70 18 -70 -5 0 -14 5 -20 11 -8 8 -13 5 -18 -10
-3 -12 -15 -21 -25 -21 -10 0 -20 -6 -23 -14 -9 -23 -50 -8 -43 16 3 12 -6 35
-24 60 -23 31 -27 46 -23 74 5 31 3 34 -18 35 -13 1 -35 3 -49 4 -15 2 -46
-11 -78 -32 -29 -19 -60 -33 -69 -31 -21 4 -45 48 -34 63 16 20 0 58 -37 92
l-37 33 28 23 c28 23 36 52 16 59 -8 3 -6 10 5 21 11 11 16 31 15 59 -1 24 4
56 10 71 10 27 15 29 64 27 84 -4 78 -8 93 73 5 32 4 37 -14 37 -30 0 -39 19
-45 98 -5 57 -3 74 8 78 7 3 18 19 24 35 8 25 15 29 45 29 24 0 36 -5 36 -14
0 -14 29 -26 67 -26 12 0 36 13 53 30 27 26 30 34 24 69 -5 30 -11 41 -27 43
-14 2 -24 14 -29 36 -6 22 -18 36 -36 43 -15 6 -34 15 -42 20 -8 5 -25 13 -37
19 -16 6 -23 18 -23 37 0 16 -5 35 -11 43 -8 12 -9 10 -5 -10 3 -14 6 -35 6
-48 0 -14 9 -26 23 -32 12 -6 29 -14 37 -19 8 -6 27 -12 41 -15 21 -5 29 -14
36 -43 6 -27 15 -39 30 -41 15 -2 22 -12 25 -34 11 -70 -101 -122 -124 -58 -4
12 -16 15 -47 12 -34 -3 -42 -9 -47 -28 -4 -14 -15 -29 -25 -34 -16 -9 -18
-19 -12 -93 6 -87 14 -107 44 -107 22 0 22 -1 7 -51 l-11 -39 -58 0 c-52 0
-61 -3 -75 -26 -9 -14 -17 -47 -18 -73 -1 -26 -7 -56 -15 -65 -11 -13 -12 -22
-4 -35 9 -14 6 -22 -13 -40 -32 -31 -30 -41 12 -76 34 -29 36 -32 30 -77 -4
-28 -3 -48 3 -48 5 0 11 -7 15 -15 3 -10 -6 -23 -29 -38 -19 -12 -33 -27 -31
-33 6 -17 -5 -27 -61 -56 -50 -26 -54 -27 -88 -12 -20 8 -40 12 -46 8 -12 -7
-89 73 -89 93 0 10 -6 12 -20 8 -45 -14 -56 32 -24 94 11 22 11 28 -4 44 -9
11 -16 28 -14 38 2 10 -2 19 -9 19 -8 0 -9 10 -5 33 14 65 28 153 28 182 1 77
-2 95 -16 95 -15 0 -29 37 -16 45 4 3 27 4 49 3 57 -2 68 11 51 62 -11 34 -11
42 2 57 8 10 22 43 31 74 20 65 11 109 -22 109 -32 0 -51 11 -51 29 0 43 -68
91 -150 106 -32 6 -63 17 -130 49 -30 15 -30 55 1 94 10 14 19 32 19 42 0 33
33 51 93 48 32 -2 56 1 57 7 0 6 -3 10 -7 10 -5 0 -18 8 -31 17 -21 14 -22 18
-10 38 10 17 10 24 1 27 -8 3 -10 15 -6 33 5 25 1 31 -20 39 -14 5 -28 15 -32
21 -3 5 -10 8 -15 5 -4 -3 -10 2 -14 10 -3 9 6 23 24 37 16 11 27 25 24 29 -2
4 1 11 7 14 7 5 -1 20 -22 41 -22 22 -28 34 -18 34 8 0 20 -5 26 -11 16 -16
73 16 73 42 0 15 5 19 19 14 11 -3 22 -1 26 5 4 6 22 8 45 5 50 -7 74 13 59
53 -8 21 -7 29 8 39 9 8 23 11 30 9 7 -3 13 0 13 6 0 7 4 7 13 -1 17 -14 75 6
98 33 14 17 17 18 47 2 42 -21 51 -20 74 9 19 25 48 34 48 15 0 -16 40 -12 46
5 9 21 24 19 24 -5z m3690 -5 c0 -8 7 -15 15 -15 10 0 15 -10 15 -34 0 -37 15
-55 32 -38 13 13 38 4 38 -12 0 -17 61 -60 82 -59 20 2 33 -43 23 -86 -3 -17
-2 -32 4 -36 21 -12 11 -53 -21 -86 -45 -48 -108 -131 -108 -144 0 -26 -51
-62 -175 -124 -22 -11 -50 -30 -61 -43 -65 -73 -103 -91 -187 -88 -15 0 -38
-6 -50 -15 -12 -8 -36 -15 -54 -15 -24 0 -37 -7 -53 -30 -17 -23 -29 -30 -55
-30 -28 0 -36 5 -40 23 -7 25 -49 69 -77 80 -28 10 -22 30 7 23 20 -5 26 -2
31 18 3 13 17 29 31 37 21 11 24 19 21 53 -3 30 1 45 18 63 12 13 28 23 37 23
24 0 40 37 33 75 -4 18 -3 35 2 37 13 5 24 68 12 68 -6 0 -10 5 -10 10 0 6 11
8 25 4 21 -5 25 -3 25 15 0 12 9 31 20 43 22 24 26 53 10 63 -15 9 9 37 26 31
7 -3 15 2 18 10 3 8 -1 17 -9 20 -22 9 -18 23 11 36 17 8 24 18 21 30 -6 22 3
28 71 49 42 14 52 14 52 4 0 -21 22 -29 31 -12 7 11 19 14 44 10 31 -5 33 -4
28 17 -8 29 11 40 70 40 35 0 47 -4 47 -15z m290 -414 c25 -22 29 -31 19 -37
-22 -14 -42 -60 -35 -81 4 -13 -2 -27 -19 -43 -29 -27 -32 -48 -9 -57 8 -3 13
-12 10 -19 -3 -9 1 -14 12 -14 10 0 5 -6 -13 -15 -28 -14 -30 -19 -27 -55 3
-29 0 -40 -10 -40 -23 0 -39 -35 -24 -55 11 -15 10 -21 -4 -35 -30 -30 -50
-31 -98 -7 -26 13 -62 27 -80 30 -19 4 -47 16 -63 28 -16 11 -47 21 -71 22
-39 2 -43 0 -41 -20 2 -15 -3 -23 -12 -23 -8 0 -15 -6 -15 -14 0 -25 12 -46
26 -46 14 0 16 -5 18 -44 1 -26 53 -53 111 -58 13 -1 21 -6 18 -11 -2 -4 -13
-5 -23 -2 -24 8 -35 -41 -11 -55 14 -8 14 -10 -4 -24 -11 -8 -30 -12 -42 -9
-27 6 -28 -3 -11 -62 6 -22 12 -48 12 -58 1 -10 12 -23 26 -30 22 -11 25 -19
25 -67 l0 -55 40 -5 c32 -4 40 -9 40 -25 0 -13 8 -21 23 -23 12 -2 22 -9 22
-16 0 -6 14 -20 30 -30 23 -13 29 -23 25 -37 -5 -15 -2 -19 14 -19 22 0 29
-24 11 -35 -6 -4 -8 -15 -5 -26 5 -15 1 -19 -14 -19 -26 0 -26 -5 0 -41 11
-16 16 -29 10 -29 -13 0 -10 -40 4 -41 5 -1 15 -2 20 -4 6 -1 16 -3 23 -3 6
-1 12 -7 12 -13 0 -7 -10 -9 -25 -5 -14 4 -25 2 -25 -4 0 -5 8 -11 18 -11 16
-1 16 -2 0 -6 -10 -2 -18 -8 -18 -13 0 -4 -27 -6 -60 -3 -49 5 -61 3 -66 -11
-3 -9 -12 -16 -20 -16 -8 0 -14 -4 -14 -8 0 -5 -6 -9 -14 -9 -19 0 -100 -54
-120 -81 -13 -17 -15 -26 -7 -36 8 -10 2 -21 -24 -45 -19 -17 -35 -38 -35 -47
0 -24 -31 -64 -50 -64 -10 0 -22 9 -25 20 -5 15 -15 20 -44 20 -34 0 -37 2
-36 27 0 22 5 28 22 28 13 0 23 3 23 8 0 4 0 12 0 17 0 6 -9 10 -19 10 -11 0
-26 7 -35 15 -8 8 -24 15 -35 15 -12 0 -21 5 -21 10 0 6 4 10 9 10 14 0 22 30
12 47 -5 9 -4 28 3 45 9 23 8 31 -4 38 -11 7 -9 11 13 19 24 9 26 15 25 58 -1
26 -8 58 -16 70 -17 28 -10 41 25 41 15 0 29 5 31 11 2 6 10 11 18 11 8 0 14
5 14 10 0 10 -11 15 -78 41 l-23 9 20 29 c12 16 32 31 45 35 17 4 25 15 30 38
7 37 -11 58 -51 58 -15 0 -23 6 -23 18 0 10 -7 28 -16 40 -12 17 -19 20 -34
12 -30 -16 -70 7 -70 41 0 30 -23 49 -60 49 -12 0 -20 5 -18 12 2 6 -6 22 -19
36 -19 20 -25 22 -38 12 -8 -7 -15 -18 -15 -24 0 -21 -25 -66 -36 -66 -6 0
-18 10 -26 22 -13 19 -18 21 -31 10 -17 -14 -26 -11 -64 22 -25 22 -32 81 -12
118 8 14 8 23 0 31 -6 6 -11 24 -11 39 0 28 -1 28 -67 29 l-68 1 53 9 c77 13
178 47 195 67 17 18 89 21 148 7 22 -6 31 -1 55 29 21 26 37 36 57 36 15 0 42
7 59 16 16 9 40 13 52 10 11 -3 28 -1 36 4 9 5 19 5 26 -1 8 -7 30 6 72 41 33
27 62 57 66 65 3 8 14 15 23 15 10 0 29 8 43 18 13 9 49 31 80 47 42 23 60 41
78 75 29 56 55 84 101 109 49 27 65 26 101 -8z m269 -262 c18 -11 39 -18 46
-15 12 4 55 -27 55 -40 0 -3 -16 -2 -36 2 l-35 6 6 -34 c6 -32 4 -36 -20 -42
-14 -4 -30 -4 -35 -1 -12 7 -55 -61 -62 -98 -3 -15 -2 -30 3 -33 12 -7 -1 -34
-17 -34 -22 0 -16 -16 11 -28 15 -7 25 -8 25 -2 0 6 11 10 25 10 14 0 25 4 25
9 0 5 11 9 25 9 32 0 34 -35 5 -61 -11 -9 -20 -24 -20 -32 0 -26 -1 -30 -16
-46 -8 -9 -14 -23 -12 -30 2 -9 -5 -13 -17 -12 -11 1 -27 0 -35 -3 -12 -4 -9
-10 12 -27 31 -25 29 -62 -3 -70 -25 -7 -24 -23 1 -37 17 -9 18 -14 8 -30 -10
-16 -9 -23 7 -41 14 -16 16 -23 8 -26 -23 -8 -13 -31 18 -42 17 -6 35 -8 39
-6 21 13 20 -19 -1 -42 -13 -13 -23 -33 -21 -44 2 -12 -3 -19 -13 -19 -12 0
-15 -6 -10 -21 9 -26 -8 -39 -52 -39 l-33 0 0 -59 c0 -39 -5 -65 -14 -74 -13
-13 -12 -17 8 -36 13 -13 35 -21 55 -21 29 0 32 -2 21 -15 -14 -17 -60 -21
-60 -5 0 6 -7 10 -15 10 -9 0 -12 6 -8 16 5 15 4 15 -18 2 -13 -8 -30 -14 -36
-13 -7 2 -22 3 -34 4 -28 1 -14 21 16 21 21 0 43 16 34 24 -2 2 -24 6 -48 9
-37 5 -44 3 -48 -14 -4 -14 -9 -16 -23 -9 -10 6 -26 7 -34 4 -11 -4 -16 0 -16
14 0 20 -24 37 -47 33 -7 -1 -13 2 -13 8 0 5 6 11 13 14 8 3 5 12 -10 29 -27
29 -29 38 -7 38 9 0 14 7 13 18 -1 9 1 25 5 34 13 28 2 53 -19 50 -16 -3 -18
-1 -8 9 13 13 0 39 -19 39 -5 0 -16 6 -23 14 -12 12 -11 15 5 19 11 3 20 11
20 17 0 9 -12 11 -39 6 -36 -5 -40 -4 -43 16 -2 19 -11 24 -43 28 -37 5 -40 8
-40 35 0 17 4 38 8 48 10 21 -15 46 -45 47 -12 0 -18 8 -17 23 0 12 -4 39 -9
60 -9 34 -8 37 12 37 11 0 32 9 46 20 23 19 24 21 8 34 -25 18 -22 34 5 38 39
5 26 32 -20 40 -56 9 -83 25 -83 48 0 28 -11 50 -25 50 -23 0 -27 31 -5 37 22
6 26 18 10 28 -5 3 -10 11 -10 17 0 17 64 2 109 -26 22 -14 50 -26 61 -26 11
0 43 -11 72 -25 67 -32 81 -32 117 7 25 27 28 34 16 41 -22 12 -18 33 10 51
13 9 22 22 20 29 -3 7 4 12 17 13 32 2 61 8 76 18 7 4 19 3 27 -4 9 -7 15 -8
20 0 3 5 15 10 26 10 10 0 19 5 19 10 0 20 41 50 68 50 15 0 42 -9 61 -21z
m231 -19 c17 0 19 -10 18 -120 0 -69 -4 -120 -10 -120 -5 0 -6 -5 -2 -11 4 -7
-7 -4 -24 6 -26 16 -30 23 -25 47 4 21 2 28 -10 28 -9 0 -25 10 -36 21 -12 13
-26 19 -35 16 -9 -4 -16 -3 -16 2 0 5 -9 11 -21 14 -15 4 -20 12 -18 29 2 13
0 29 -4 36 -10 15 -6 15 27 2 31 -11 39 0 26 34 -11 29 0 35 20 11 11 -13 15
-14 29 -1 19 17 55 25 59 14 2 -4 12 -8 22 -8z m-150 -155 c0 -7 14 -12 32
-13 18 0 40 -10 52 -23 12 -12 15 -19 9 -15 -7 4 -13 2 -13 -5 0 -16 52 -63
70 -64 12 0 15 -20 17 -110 4 -213 25 -571 39 -645 l14 -75 -25 -22 c-16 -14
-39 -23 -60 -23 -18 0 -40 -3 -49 -6 -9 -3 -16 -1 -16 5 0 22 -45 59 -80 66
-19 4 -63 8 -98 9 -76 1 -82 8 -82 99 0 64 1 67 24 67 14 0 36 4 51 10 22 8
24 13 15 30 -9 16 -8 20 5 20 9 0 15 9 15 23 0 13 9 32 20 42 32 29 22 59 -23
66 -46 7 -58 18 -29 26 23 6 31 23 11 23 -22 0 -38 32 -26 51 9 14 6 22 -14
39 -16 15 -18 20 -7 16 20 -6 23 -2 33 42 6 29 4 34 -14 39 -12 3 -21 10 -21
15 0 5 5 6 10 3 18 -11 50 6 50 25 0 10 5 22 10 25 6 3 10 18 10 33 0 16 10
34 25 47 18 15 23 26 18 48 -4 23 -10 27 -37 27 -18 0 -36 -4 -41 -9 -6 -5
-21 -12 -33 -16 -21 -6 -22 -5 -14 12 5 10 8 32 5 48 -2 18 4 44 15 65 16 28
25 34 45 32 14 -2 28 2 32 7 8 13 55 -16 55 -34z m-2595 -105 c3 -5 1 -17 -4
-27 -34 -65 -67 -263 -43 -263 5 0 12 -11 14 -25 4 -18 -1 -29 -18 -40 -27
-18 -32 -56 -9 -75 8 -7 15 -9 15 -4 0 4 5 3 12 -4 7 -7 20 -12 30 -12 22 0
23 -19 3 -46 -18 -23 -19 -44 -3 -44 7 0 22 -12 33 -26 12 -15 32 -28 45 -29
14 -2 50 -12 80 -22 62 -21 67 -39 24 -82 -13 -13 -24 -28 -24 -34 0 -15 41
-57 56 -57 18 0 44 -39 37 -56 -3 -8 -8 -46 -12 -86 l-6 -72 -55 -39 c-61 -42
-72 -57 -41 -57 30 0 31 -10 5 -67 -20 -44 -30 -54 -60 -62 -29 -8 -40 -7 -51
4 -8 8 -20 15 -28 15 -16 0 -29 27 -26 55 3 32 -28 95 -50 103 -28 11 -171 -8
-190 -24 -8 -8 -21 -14 -28 -14 -6 0 -14 -7 -18 -15 -3 -9 -28 -27 -54 -41
-43 -21 -48 -27 -39 -44 13 -25 13 -30 -4 -24 -7 3 -16 -2 -19 -11 -5 -11 -14
-14 -31 -9 -13 3 -27 1 -31 -6 -5 -8 -10 -8 -21 1 -17 14 -99 4 -127 -16 -11
-8 -25 -11 -33 -8 -7 3 -30 -9 -51 -26 -20 -17 -39 -29 -41 -26 -2 2 -6 25 -9
51 -6 60 -19 93 -38 100 -8 4 -15 15 -15 25 0 23 4 23 33 4 44 -28 71 29 31
66 -17 16 -22 29 -18 46 4 14 2 23 -5 23 -6 0 -11 -4 -11 -9 0 -19 -60 -20
-92 -1 -33 20 -54 16 -86 -17 -15 -15 -32 -17 -32 -4 0 5 -9 11 -20 14 -11 3
-20 1 -20 -5 0 -15 -40 -46 -87 -68 -24 -11 -43 -25 -43 -30 0 -25 -73 -3 -97
29 -10 14 -13 14 -31 -3 -12 -10 -26 -15 -32 -11 -6 4 -17 1 -25 -5 -8 -6 -19
-9 -24 -6 -5 4 -12 2 -15 -3 -3 -5 -15 -7 -26 -4 -12 3 -29 -2 -42 -13 l-21
-19 5 55 c3 30 11 69 18 85 7 17 12 38 11 48 -1 9 4 17 12 17 8 0 22 9 31 19
10 11 24 17 32 14 24 -9 29 28 7 66 -14 26 -18 44 -12 64 5 20 4 27 -6 27 -23
0 -26 16 -14 89 l12 70 48 -6 49 -6 0 41 c0 26 5 42 15 46 25 9 18 45 -11 52
-23 6 -25 11 -20 36 11 54 37 95 69 111 80 39 101 45 118 37 19 -11 32 -38 23
-51 -3 -5 11 -9 30 -9 27 0 36 5 42 22 4 13 20 39 36 59 28 35 30 36 72 26 57
-13 73 -6 82 38 6 33 27 55 55 55 8 0 10 -16 6 -57 -5 -51 -3 -62 17 -86 21
-25 26 -27 44 -16 11 7 26 26 33 43 12 26 20 31 49 31 31 0 35 -3 38 -27 2
-14 10 -32 18 -39 21 -17 83 -17 89 0 5 13 45 12 133 -5 32 -6 34 -5 30 22 -2
24 1 30 22 33 32 4 40 17 40 62 0 31 -5 39 -31 51 -16 8 -46 13 -66 11 -25 -3
-34 0 -31 9 3 8 21 13 45 13 22 0 46 5 54 11 16 13 89 17 89 6 0 -5 18 -8 40
-7 33 0 40 3 40 20 0 28 16 49 29 40 20 -12 58 3 64 25 5 21 22 27 32 10z
m492 -716 c29 -14 33 -21 28 -41 -4 -16 1 -32 13 -47 14 -19 17 -34 13 -72
l-6 -49 -50 0 c-44 0 -50 -3 -53 -22 -3 -18 1 -23 21 -23 32 0 38 -8 24 -31
-17 -27 2 -53 40 -57 28 -3 30 -1 31 32 1 39 28 77 48 69 23 -9 56 16 49 38
-7 23 3 24 29 4 11 -8 30 -15 42 -15 26 0 37 -13 40 -48 2 -13 8 -30 15 -39 7
-8 14 -32 15 -53 1 -21 5 -44 9 -49 11 -18 43 -12 50 9 7 22 25 26 41 10 6 -6
25 -7 42 -4 25 5 32 12 32 30 0 17 8 28 27 35 40 15 55 5 48 -33 -5 -27 -1
-39 23 -65 34 -38 43 -40 67 -13 24 26 48 25 60 -2 14 -32 61 -54 81 -37 17
14 19 12 28 -18 8 -24 -7 -32 -19 -12 -10 15 -55 -29 -48 -47 3 -8 -2 -17 -11
-20 -9 -3 -13 -11 -9 -18 4 -6 8 -18 8 -26 0 -13 60 -49 106 -63 20 -6 14 -57
-6 -57 -7 0 -15 -7 -19 -15 -3 -8 -14 -15 -25 -15 -11 0 -23 -5 -27 -11 -3 -6
-17 -8 -31 -4 -31 7 -63 -18 -63 -51 0 -13 -7 -27 -16 -32 -10 -6 -17 -25 -19
-53 -2 -24 -5 -49 -7 -56 -1 -6 4 -18 13 -25 10 -7 20 -23 24 -35 6 -20 3 -23
-24 -23 -43 0 -84 -17 -75 -32 5 -10 4 -10 -5 -2 -8 8 -9 18 -2 36 11 30 6 38
-22 38 -11 0 -29 7 -39 16 -16 16 -18 15 -24 -1 -4 -10 -20 -30 -35 -45 -27
-25 -28 -29 -16 -59 9 -26 17 -32 34 -28 36 7 54 -22 43 -65 -13 -45 1 -85 32
-97 22 -9 21 -10 -15 -25 -34 -15 -45 -15 -107 -2 -37 7 -73 17 -79 20 -14 9
-14 -10 0 -37 10 -18 8 -24 -17 -46 -16 -13 -28 -30 -26 -38 3 -15 -8 -16 -42
-3 -16 6 -24 15 -20 24 4 10 -5 16 -28 21 -18 4 -37 11 -43 15 -5 4 -32 13
-58 21 -27 8 -53 22 -58 31 -5 10 -21 18 -34 18 -13 0 -26 4 -30 9 -7 12 -65
-7 -65 -20 0 -6 -10 -1 -22 11 -12 11 -25 20 -30 20 -4 0 -8 12 -8 26 0 20 -4
24 -18 20 -10 -4 -33 1 -50 10 -34 17 -36 23 -32 112 1 28 -1 52 -4 52 -7 0
-61 -113 -58 -122 1 -5 -5 -8 -13 -8 -12 0 -15 10 -13 42 3 40 1 43 -42 69
-46 28 -94 37 -105 19 -9 -15 -51 -12 -64 4 -12 14 -4 76 10 76 4 0 15 -7 23
-16 9 -8 16 -11 16 -5 0 6 -9 16 -19 23 -15 9 -17 15 -9 25 15 18 26 16 38 -7
14 -25 -4 -62 -25 -54 -8 4 -15 2 -15 -4 0 -5 7 -12 15 -16 11 -4 21 5 32 29
16 33 15 36 -2 55 -22 24 -38 25 -55 5 -19 -23 -30 -18 -30 15 0 23 4 30 20
30 11 0 20 6 20 14 0 9 12 14 38 14 50 1 101 -18 95 -35 -7 -18 24 -28 42 -13
7 6 11 19 8 27 -5 13 0 15 30 9 30 -6 38 -3 46 13 6 11 10 28 9 38 -4 51 17
70 70 64 16 -2 22 3 22 17 0 14 5 19 18 16 9 -2 39 1 67 8 l49 13 3 46 c3 38
-1 49 -22 69 l-25 23 29 18 c22 13 28 23 24 42 -3 14 0 28 6 31 18 12 12 36
-8 36 -11 0 -23 5 -26 10 -4 6 -12 10 -18 9 -30 -4 -39 2 -34 21 3 12 -1 23
-10 28 -13 8 -13 13 0 45 13 31 14 37 1 48 -21 17 -17 34 12 48 33 15 26 35
-13 39 -27 3 -30 6 -28 33 1 17 7 35 14 42 6 6 11 21 11 34 0 18 7 25 30 29
34 7 57 29 41 38 -12 8 -3 36 11 36 6 0 26 -7 45 -16z m-163 -174 c-6 -28 -5
-30 25 -30 35 0 42 -15 11 -25 -23 -7 -26 -37 -5 -55 13 -11 13 -16 -1 -42
-13 -25 -14 -35 -4 -53 7 -13 9 -28 6 -34 -8 -13 29 -34 68 -38 33 -4 47 -14
29 -20 -7 -3 -13 -17 -13 -33 0 -19 -9 -35 -27 -48 l-28 -20 28 -26 c23 -21
27 -32 24 -63 -4 -35 -7 -39 -48 -51 -30 -9 -49 -10 -60 -3 -20 12 -29 5 -29
-22 0 -13 -5 -17 -16 -13 -36 14 -91 -39 -83 -80 5 -29 -2 -46 -18 -40 -9 4
-32 9 -50 12 -32 5 -34 4 -24 -15 15 -26 14 -44 -1 -38 -7 2 -12 11 -11 19 3
16 -46 36 -97 38 -53 3 -60 1 -60 -15 0 -9 -9 -15 -25 -15 -22 0 -25 -3 -19
-27 3 -16 10 -38 16 -50 6 -12 8 -34 4 -48 l-7 -28 -22 21 c-25 23 -52 16 -41
-11 4 -11 1 -17 -8 -17 -8 0 -22 -6 -32 -13 -17 -12 -16 -15 3 -65 11 -28 18
-58 15 -67 -7 -16 -34 -21 -34 -6 0 5 -8 12 -17 15 -12 5 -24 -3 -41 -24 -13
-16 -28 -28 -33 -25 -4 3 -19 -1 -33 -10 -21 -14 -24 -14 -29 0 -8 19 -65 19
-91 0 -17 -13 -22 -13 -35 -1 -26 22 -77 30 -84 12 -5 -11 -13 -13 -36 -6 -17
4 -39 6 -51 3 -11 -3 -21 0 -21 6 -1 6 -3 16 -4 21 -1 6 -3 16 -4 24 0 7 -16
19 -33 26 -18 6 -41 16 -50 21 -12 6 -18 6 -18 -2 0 -5 -4 -8 -9 -5 -5 3 -14
-1 -21 -9 -18 -21 -47 -19 -60 5 -6 11 -18 20 -26 20 -14 0 -69 -33 -84 -50
-17 -20 -60 -39 -66 -29 -10 16 -54 -31 -54 -57 0 -13 -5 -26 -11 -29 -5 -4
-14 -18 -19 -31 -9 -23 -40 -34 -40 -14 0 6 14 29 30 52 17 22 30 46 30 52 0
6 9 17 21 24 11 7 32 39 46 70 13 31 39 73 57 92 53 56 78 106 71 138 -4 22 0
33 20 52 14 13 25 32 25 43 0 10 9 21 20 24 21 6 36 43 26 68 -3 9 3 19 14 25
13 7 20 21 20 41 0 22 6 32 26 39 14 6 40 21 57 34 18 13 38 21 45 19 7 -3 21
2 30 10 9 9 40 19 68 22 43 6 52 4 58 -10 5 -15 9 -15 23 -4 8 8 26 12 39 11
13 -2 24 1 24 7 0 6 10 11 21 11 18 0 21 4 16 29 -5 25 -2 31 22 41 16 6 39
22 52 36 12 13 27 24 32 24 6 0 18 7 27 15 9 8 48 17 97 21 80 7 81 7 99 -21
10 -15 18 -46 19 -68 1 -30 7 -44 25 -58 14 -10 33 -27 43 -36 12 -12 20 -14
25 -7 4 7 22 15 40 19 25 5 36 15 51 48 29 65 31 94 4 99 -12 2 -3 12 28 32
56 37 63 49 69 116 5 54 6 55 38 58 17 2 32 7 32 13 0 5 4 9 10 9 5 0 7 -13 4
-30z m-1210 -139 c23 -15 34 -17 52 -9 13 6 25 9 27 7 1 -2 12 -18 25 -36 37
-54 27 -83 -19 -56 -31 19 -33 18 -43 -14 -6 -19 -2 -25 18 -32 20 -8 26 -19
31 -58 3 -26 7 -58 9 -70 2 -12 -3 -24 -10 -27 -8 -3 -14 -20 -14 -37 0 -18
-7 -37 -17 -44 -10 -7 -17 -27 -17 -46 -1 -22 -5 -33 -14 -31 -7 1 -21 -17
-31 -41 -11 -24 -27 -47 -36 -51 -14 -5 -16 -14 -12 -43 7 -41 -26 -108 -64
-131 -11 -7 -36 -46 -54 -85 -19 -40 -43 -78 -54 -85 -12 -7 -21 -17 -21 -23
0 -6 -15 -32 -34 -58 -30 -41 -33 -48 -20 -65 18 -26 9 -36 -31 -36 -19 0 -50
-9 -70 -21 -28 -17 -38 -19 -50 -9 -8 7 -15 21 -15 30 0 10 -5 20 -10 22 -7 2
-7 14 -1 35 11 39 -2 53 -21 23 -15 -23 -28 -26 -28 -6 0 23 -26 25 -59 5 -41
-25 -93 -17 -120 17 -15 19 -25 23 -50 18 -17 -4 -31 -4 -31 -2 0 16 26 77 42
97 10 13 18 37 18 53 0 16 6 31 15 34 8 4 15 16 15 28 0 11 4 28 10 36 5 9 5
19 -1 26 -7 9 -4 14 10 19 24 7 28 40 6 49 -18 6 -20 37 -4 53 8 8 5 14 -10
22 -17 9 -20 17 -14 39 9 39 51 102 67 102 20 0 30 38 16 55 -7 8 -12 31 -12
51 0 28 -9 45 -44 82 -24 26 -44 54 -44 62 0 24 55 41 91 28 24 -8 33 -7 49 7
11 10 26 15 35 11 8 -3 28 0 43 6 15 6 35 10 45 9 10 -1 25 3 32 9 11 9 20 7
41 -9 27 -21 94 -29 94 -11 0 5 19 18 43 29 23 11 55 31 72 44 25 21 31 22 40
10 9 -12 16 -10 45 11 43 30 48 30 84 7z m2216 -471 c7 -17 21 -35 30 -40 9
-5 23 -23 30 -39 13 -32 40 -46 77 -42 13 1 27 0 32 -3 15 -9 -17 -63 -63
-109 -67 -66 -116 -132 -127 -170 -5 -19 -22 -51 -39 -71 -27 -35 -36 -65 -55
-178 -3 -21 -10 -38 -15 -38 -20 0 -9 -47 21 -96 37 -59 116 -142 181 -190 52
-39 139 -69 174 -60 12 3 25 2 28 -2 11 -18 -100 -35 -161 -26 -89 13 -198 11
-217 -5 -25 -21 -134 -22 -139 -2 -3 11 -7 9 -14 -10 -9 -20 -27 -30 -85 -49
-40 -14 -82 -32 -93 -41 -15 -12 -27 -14 -50 -8 -23 7 -36 5 -55 -10 -14 -10
-24 -26 -22 -34 2 -11 -10 -20 -40 -28 -24 -6 -47 -14 -52 -17 -6 -3 -43 -6
-83 -7 -60 -1 -73 2 -74 14 0 12 -3 10 -10 -5 -7 -14 -27 -24 -65 -32 -29 -6
-69 -21 -86 -34 -38 -27 -59 -29 -85 -7 -26 24 -53 35 -95 43 -21 4 -38 8 -38
10 0 2 7 17 15 32 22 43 20 74 -6 74 -20 0 -21 4 -14 46 11 73 13 77 55 71 46
-6 52 -2 79 51 17 33 19 47 11 62 -11 21 -60 29 -60 10 0 -5 -5 -10 -11 -10
-5 0 -8 4 -5 9 7 11 -16 59 -32 66 -7 2 -24 0 -38 -5 -36 -14 -44 -13 -44 10
0 10 -9 24 -20 30 -11 6 -20 20 -20 31 0 19 5 21 67 17 58 -3 68 -1 71 15 2 9
12 18 23 18 10 1 24 3 29 4 6 1 13 3 17 4 4 0 -2 8 -13 17 -13 11 -15 17 -6
20 6 3 12 12 12 21 0 11 7 13 28 9 21 -5 30 -2 40 15 10 15 11 24 3 32 -14 14
-14 67 0 67 6 0 32 14 57 31 37 25 51 29 80 24 19 -4 43 -16 53 -28 9 -12 23
-22 31 -22 7 0 45 -11 85 -23 52 -17 70 -27 66 -38 -3 -9 5 -17 22 -24 40 -15
65 -12 65 7 0 9 12 30 27 45 24 25 26 31 15 49 -12 18 -11 20 5 15 10 -3 35
-8 56 -12 20 -3 37 -10 37 -14 0 -8 89 12 109 24 19 12 12 35 -13 42 -29 7
-35 33 -22 87 11 47 -13 80 -50 71 -19 -5 -24 -1 -30 20 -7 28 20 71 37 60 5
-3 9 4 9 15 0 22 14 28 25 11 3 -5 15 -10 25 -10 16 0 19 -6 17 -37 -1 -29 2
-38 16 -41 10 -2 17 3 17 12 0 17 41 31 64 23 23 -9 38 17 27 46 -5 14 -15 28
-21 32 -16 10 -4 107 14 117 9 5 16 19 16 30 0 34 28 58 60 52 15 -4 31 -1 34
5 4 6 16 11 27 11 10 0 19 5 19 10 0 21 18 9 30 -20z m-1444 -244 c10 -8 19
-20 19 -28 0 -19 65 -26 99 -9 27 13 33 12 75 -11 44 -23 46 -26 46 -67 0 -30
5 -45 18 -52 20 -11 37 -4 37 15 0 8 9 33 20 57 l21 44 -2 -40 c-4 -82 -1 -93
33 -109 17 -9 39 -16 50 -16 10 0 18 -6 18 -13 0 -7 12 -24 28 -37 23 -21 24
-25 10 -28 -10 -2 -18 -7 -18 -12 0 -4 -11 -11 -25 -14 -22 -6 -24 -10 -19
-34 4 -15 10 -31 15 -36 14 -16 -3 -36 -30 -36 -30 0 -61 -30 -61 -60 0 -11
-3 -19 -7 -18 -17 3 -41 -14 -37 -26 3 -9 -12 -11 -61 -8 -37 3 -71 0 -76 -5
-13 -13 9 -63 28 -63 7 0 13 -11 13 -24 0 -30 17 -37 50 -19 22 12 27 11 43
-8 9 -12 17 -30 17 -40 0 -20 24 -26 35 -9 10 16 42 12 49 -6 3 -8 -5 -34 -17
-57 -22 -38 -27 -42 -57 -39 -19 2 -44 8 -57 13 -14 5 -40 9 -59 9 -27 0 -36
5 -44 24 -5 13 -21 30 -37 38 -15 7 -30 24 -33 38 -7 27 -8 28 -130 15 -53 -6
-68 -12 -84 -33 -15 -20 -17 -29 -8 -43 10 -16 7 -18 -21 -21 -21 -2 -32 -8
-32 -19 0 -17 -56 -69 -74 -69 -6 0 -17 -12 -25 -27 -8 -16 -15 -23 -16 -18 0
6 -9 0 -18 -13 -16 -21 -23 -22 -53 -15 -24 7 -34 15 -34 29 0 34 -12 41 -63
36 -44 -4 -50 -2 -65 22 -10 14 -24 26 -32 26 -17 0 -19 -12 -5 -26 5 -5 6
-15 0 -24 -7 -11 -11 -8 -21 13 -7 15 -17 27 -22 27 -5 0 -16 8 -23 17 -9 13
-28 18 -67 19 -56 2 -80 7 -129 26 -22 8 -28 17 -28 40 0 24 -6 32 -35 44 -19
8 -35 18 -35 23 0 5 -7 12 -16 15 -20 8 -43 -20 -37 -45 4 -15 -2 -17 -45 -16
-28 1 -48 6 -45 10 3 5 -5 11 -16 14 -15 4 -19 9 -12 17 16 20 -34 68 -63 60
-15 -3 -40 3 -65 16 l-42 21 18 29 c12 22 22 28 36 24 22 -7 46 21 47 53 0 12
5 25 10 28 8 5 8 11 1 19 -15 18 20 48 51 45 33 -4 68 10 68 27 0 8 4 14 9 14
8 0 29 40 59 113 12 28 28 35 34 16 3 -10 51 20 121 77 23 19 34 18 47 -6 11
-20 70 -30 70 -11 0 16 47 18 84 3 27 -10 36 -20 36 -37 0 -27 24 -49 44 -42
8 3 29 2 47 -3 23 -7 37 -6 47 3 19 16 53 10 70 -11 12 -16 15 -16 43 1 37 21
63 22 79 2 10 -12 16 -12 34 -3 11 7 28 11 37 10 9 -2 24 9 33 23 16 25 46 35
46 15 0 -5 11 -10 24 -10 33 0 38 30 16 93 -14 38 -15 53 -7 56 56 18 59 21
47 36 -16 19 0 19 26 1z m-1238 -598 c7 -7 33 -15 60 -18 43 -4 47 -8 50 -33
2 -16 10 -31 18 -34 8 -3 14 -11 14 -18 0 -18 17 -28 32 -19 7 5 31 8 54 9 31
0 45 -5 54 -18 10 -16 9 -18 -8 -13 -14 5 -26 -1 -40 -19 -11 -13 -30 -26 -43
-28 -26 -4 -39 -41 -20 -60 6 -6 11 -22 11 -35 0 -14 8 -31 17 -38 24 -17 10
-29 -16 -14 -17 9 -22 8 -27 -5 -4 -8 -2 -21 3 -28 21 -28 13 -56 -21 -67 -46
-15 -74 -78 -43 -97 18 -11 28 -41 17 -48 -23 -14 -10 -43 22 -50 25 -6 34 -3
47 13 9 11 30 22 46 24 24 2 31 8 33 31 3 25 32 41 32 17 0 -6 11 -16 25 -22
13 -6 27 -19 30 -29 3 -10 18 -22 33 -28 15 -5 22 -10 15 -10 -12 -1 -43 -56
-43 -77 0 -7 9 -18 20 -24 24 -13 27 -35 4 -26 -46 18 -91 18 -109 0 -14 -15
-19 -16 -23 -5 -3 9 -12 5 -29 -15 -16 -19 -26 -25 -29 -16 -3 7 -24 12 -49
12 -26 0 -47 6 -55 15 -9 11 -16 12 -25 5 -7 -6 -20 -8 -28 -4 -14 5 -15 1 -7
-27 5 -17 7 -36 4 -40 -3 -5 0 -9 5 -9 6 0 11 -9 11 -21 0 -11 -4 -18 -9 -15
-5 3 -28 8 -52 10 -24 3 -75 8 -114 12 -55 6 -75 12 -92 31 -13 13 -23 31 -23
40 0 10 -6 14 -20 10 -17 -4 -20 0 -20 23 0 16 -7 35 -15 44 -8 8 -15 18 -15
22 0 4 -9 17 -20 29 -17 18 -18 25 -7 48 6 15 18 27 26 27 22 0 51 31 51 54 0
13 21 42 51 71 46 46 50 53 46 86 -3 25 0 42 11 53 9 9 18 35 19 58 2 24 5 55
6 70 1 15 8 33 15 40 6 6 12 20 12 31 0 10 4 16 9 12 17 -10 49 36 56 81 6 44
20 55 43 32z m330 -100 c2 -4 10 -4 19 -1 13 5 15 0 11 -26 -5 -35 0 -40 71
-64 23 -8 51 -13 61 -10 34 9 89 -7 101 -28 17 -32 1 -120 -22 -126 -22 -6
-54 -67 -44 -83 4 -7 0 -10 -11 -8 -14 2 -20 -4 -22 -21 -5 -30 12 -41 66 -41
35 0 42 -3 42 -20 0 -15 -7 -20 -29 -20 -34 0 -44 -10 -31 -30 6 -9 4 -20 -5
-30 -8 -9 -16 -27 -17 -41 -2 -19 2 -25 22 -27 33 -5 41 -14 30 -32 -7 -12
-13 -13 -28 -3 -34 21 -46 1 -29 -48 l15 -44 51 2 50 2 3 -37 c3 -33 6 -37 32
-37 18 0 33 -7 40 -20 5 -11 23 -39 39 -63 30 -45 30 -71 -1 -79 -16 -4 -19
-15 -19 -61 0 -60 -7 -116 -18 -143 -3 -10 -2 -20 4 -24 19 -11 -7 -47 -30
-40 -16 5 -19 2 -19 -27 1 -34 19 -68 38 -68 15 0 25 -32 12 -40 -12 -7 -3
-40 11 -40 5 0 9 -9 9 -19 0 -11 5 -23 10 -26 6 -4 7 -23 4 -46 -5 -28 -2 -44
8 -57 29 -32 31 -59 6 -66 -14 -5 -18 -9 -10 -13 6 -2 12 -11 12 -20 0 -22 26
-44 45 -37 11 5 18 0 22 -15 3 -11 13 -22 22 -22 16 -1 21 -1 56 8 77 18 85 7
19 -28 -25 -13 -65 -34 -88 -46 -22 -12 -58 -25 -78 -29 -36 -6 -69 -39 -74
-72 -2 -8 -4 -15 -6 -15 -2 -1 -12 -8 -23 -15 -40 -24 -72 -34 -158 -47 -48
-8 -102 -18 -120 -24 -43 -14 -114 9 -109 36 2 10 3 37 3 59 -1 37 1 42 24 48
26 7 33 20 15 31 -5 3 -10 13 -10 22 0 9 -11 30 -24 47 -20 27 -22 38 -16 83
8 62 -1 74 -43 62 -23 -6 -35 -5 -47 6 -18 17 -19 21 -23 83 -2 29 -8 47 -20
53 -9 6 -17 19 -17 30 0 14 -14 25 -47 40 -25 11 -53 17 -61 14 -8 -3 -16 2
-19 13 -4 17 -36 34 -117 63 -35 12 -83 60 -80 77 1 4 -13 24 -32 45 -22 24
-34 47 -34 65 0 16 -9 37 -19 46 -21 19 -34 56 -20 56 12 0 89 72 89 84 0 5
12 24 26 43 20 26 24 40 19 63 l-7 30 54 -5 c68 -6 126 -14 160 -21 33 -7 40
16 21 63 -7 18 -13 34 -13 37 0 9 38 13 52 5 9 -5 31 -10 49 -11 19 -1 40 -8
46 -14 14 -14 53 -7 50 8 -1 6 7 12 17 14 11 1 24 10 29 19 7 13 17 15 50 10
23 -4 46 -11 52 -16 16 -15 25 -10 25 15 0 13 -10 30 -21 38 -21 13 -21 15 -5
46 9 18 21 32 26 32 13 0 13 30 0 31 -5 1 -13 2 -17 3 -5 1 -27 21 -50 44 -50
50 -80 55 -85 15 -2 -21 -9 -29 -28 -31 -14 -2 -35 -13 -47 -24 -14 -13 -28
-18 -42 -13 -23 7 -27 20 -10 31 14 8 2 55 -19 70 -14 11 -15 15 -3 38 8 14
29 31 48 38 21 8 33 18 31 28 -1 8 1 21 6 28 5 9 1 18 -10 27 -22 17 -11 20
16 5 15 -8 21 -6 30 9 8 16 7 22 -9 30 -10 6 -21 23 -24 38 -3 16 -8 38 -12
50 -6 17 -2 22 23 27 16 4 35 18 42 31 10 19 19 23 37 19 12 -4 23 -3 23 1 0
11 -22 50 -33 56 -5 4 -6 16 -2 29 l7 22 26 -24 c15 -12 28 -26 30 -30z m978
7 c3 -20 30 -45 48 -45 6 0 19 -13 28 -29 13 -25 24 -30 60 -33 48 -3 46 2 33
-95 -7 -50 -6 -53 14 -53 25 0 27 -19 5 -62 -15 -29 -15 -32 0 -44 9 -6 34
-14 56 -18 22 -3 49 -15 59 -25 10 -10 26 -23 35 -28 13 -7 4 -18 -49 -57 -37
-27 -74 -49 -83 -50 -9 0 -19 -6 -22 -12 -3 -7 -25 -27 -49 -45 -40 -31 -70
-76 -100 -149 -10 -25 -18 -80 -27 -165 -4 -44 -3 -45 26 -45 16 0 32 -4 35
-10 3 -5 -2 -10 -11 -10 -23 0 -54 -29 -54 -50 0 -9 -9 -25 -20 -35 -11 -10
-20 -26 -20 -37 0 -10 -10 -23 -23 -29 -13 -6 -24 -16 -24 -22 0 -7 -3 -36 -7
-64 -7 -49 -6 -53 12 -53 12 0 24 5 27 10 15 24 22 7 12 -27 -5 -21 -10 -58
-11 -82 0 -38 -7 -50 -48 -94 -43 -46 -65 -88 -72 -134 -2 -9 -18 -22 -37 -29
-19 -6 -54 -21 -77 -33 -23 -11 -52 -21 -64 -21 -13 -1 -40 -7 -60 -14 -40
-14 -51 -11 -61 18 -5 11 -14 17 -25 14 -29 -8 -52 36 -28 53 12 9 -3 66 -19
73 -10 3 -13 18 -10 50 3 25 0 48 -5 51 -6 3 -10 14 -10 24 0 10 -7 24 -15 31
-11 9 -12 16 -5 25 14 17 -3 61 -30 75 -25 14 -27 50 -2 50 25 0 50 46 34 62
-9 9 -8 16 5 30 13 15 14 21 5 27 -10 6 -10 15 -2 36 6 16 9 48 7 71 -4 34 -2
43 13 47 10 2 23 14 29 25 8 16 6 25 -14 48 -13 16 -30 42 -37 59 -15 37 -37
55 -63 52 -16 -2 -21 5 -23 33 -4 43 -13 49 -68 42 -39 -4 -44 -2 -44 15 0 10
-5 24 -12 31 -18 18 -1 27 27 14 21 -10 26 -9 36 9 16 30 4 49 -31 49 -28 0
-31 3 -24 23 3 12 13 29 20 38 8 9 12 24 8 33 -5 13 0 16 25 16 28 0 31 3 31
30 0 22 -5 30 -17 31 -10 0 -33 1 -52 2 -24 2 -35 7 -37 20 -1 11 4 17 18 17
15 0 18 5 14 16 -9 25 15 72 40 78 19 5 24 16 31 68 9 60 10 62 21 36 6 -16
16 -28 21 -28 16 0 31 27 25 46 -5 12 2 8 16 -9 20 -25 28 -28 74 -26 45 3 51
1 52 -17 1 -10 2 -24 3 -30 0 -7 17 -15 36 -18 29 -6 41 -2 70 20 19 14 35 33
35 40 0 8 8 14 18 14 27 1 86 56 79 74 -5 13 1 16 28 16 36 0 41 5 26 29 -6 9
-4 23 6 38 12 18 25 23 62 24 25 0 55 4 66 9 31 14 58 7 61 -15z m-1400 -1310
c32 -14 63 -34 71 -45 7 -10 21 -18 31 -18 9 1 34 -4 55 -11 29 -10 37 -18 37
-36 0 -13 8 -28 17 -33 12 -7 17 -24 18 -55 1 -63 33 -98 83 -91 l35 4 -6 -52
c-4 -43 -1 -58 14 -77 10 -13 19 -30 19 -39 0 -8 7 -23 15 -33 15 -15 14 -17
-10 -23 -26 -7 -25 -2 -29 -128 -1 -18 7 -24 37 -31 37 -9 46 -20 27 -32 -5
-3 -10 -19 -10 -35 0 -16 -4 -31 -9 -34 -12 -8 -187 29 -283 59 -43 13 -84 22
-93 19 -9 -4 -18 1 -22 12 -9 24 -29 41 -73 61 -34 15 -66 40 -140 107 -19 17
-56 46 -82 65 -48 34 -52 48 -18 69 14 8 27 9 45 2 35 -13 37 -13 27 8 -5 9
-7 22 -5 29 2 6 -4 24 -14 40 -10 15 -13 24 -6 20 16 -10 51 26 65 64 6 18 17
29 29 29 23 0 25 27 4 54 -28 37 -9 76 21 46 19 -19 60 9 74 50 7 21 9 43 6
49 -11 17 8 13 70 -14z"/>
<path d="M4519 6628 c0 -2 -3 -21 -5 -43 -3 -22 -9 -55 -14 -72 -5 -20 -5 -35
1 -39 6 -3 7 -14 4 -25 -4 -10 -3 -24 1 -31 18 -29 9 -47 -39 -73 -34 -18 -65
-26 -101 -27 -59 -1 -76 -11 -76 -44 0 -28 -8 -30 -26 -7 -7 10 -16 15 -20 11
-7 -8 32 -48 48 -48 4 0 8 16 8 35 0 19 1 35 3 36 1 0 28 3 60 5 33 2 68 9 79
15 16 9 25 6 44 -12 13 -12 24 -17 24 -11 0 6 -9 17 -20 25 -20 14 -20 15 10
27 23 10 30 19 30 41 0 15 -4 30 -9 34 -10 6 -8 128 3 163 6 18 10 19 49 9 51
-12 67 -24 67 -48 0 -11 7 -19 16 -19 14 0 14 -3 4 -15 -10 -12 -10 -18 0 -30
10 -12 10 -15 -4 -15 -9 0 -16 -3 -16 -7 1 -11 41 -39 68 -47 24 -8 56 9 46
25 -10 16 29 9 48 -8 15 -14 23 -15 38 -6 15 10 19 9 24 -4 5 -12 9 -13 21 -3
8 7 15 9 15 4 0 -5 6 -2 13 7 11 15 80 59 92 59 2 0 6 -13 10 -30 4 -16 13
-30 21 -30 18 0 18 -24 -1 -61 -20 -38 -14 -47 29 -46 19 0 32 5 29 10 -3 4
-18 5 -34 2 -32 -7 -35 -1 -14 35 18 32 19 70 1 70 -16 0 -29 27 -20 41 12 21
-8 28 -37 14 -16 -9 -29 -12 -29 -8 0 4 -12 -5 -27 -19 -38 -34 -60 -41 -68
-20 -6 16 -7 16 -19 0 -16 -22 -32 -23 -40 -3 -9 23 -63 19 -69 -5 -3 -11 -9
-20 -14 -20 -16 0 -54 41 -47 51 3 5 0 16 -6 24 -9 11 -9 15 -1 15 6 0 11 7
11 15 0 8 -6 15 -13 15 -7 0 -18 14 -24 30 -7 19 -18 30 -31 30 -11 0 -36 7
-56 15 -20 8 -36 14 -37 13z"/>
<path d="M5313 2420 c-12 -5 -28 -18 -35 -30 -10 -15 -23 -20 -54 -20 -27 0
-47 -6 -55 -17 -11 -13 -11 -17 -1 -20 16 -6 15 -21 -3 -40 -12 -12 -19 -13
-30 -3 -12 10 -15 10 -15 -3 0 -25 30 -28 60 -7 15 11 43 20 62 20 41 0 133
-43 234 -109 42 -28 79 -51 82 -51 11 0 -53 62 -120 117 -73 60 -86 81 -66
112 24 39 -12 70 -59 51z m47 -10 c13 -8 13 -14 -3 -42 l-18 -32 73 -70 c66
-63 68 -66 25 -37 -68 46 -148 81 -193 84 -70 4 -86 47 -17 47 25 0 45 9 70
30 37 33 41 34 63 20z"/>
</g>
</svg>
